<?xml version="1.0" encoding="UTF-8"?>
<svg version="1.1" xmlns="http://www.w3.org/2000/svg" width="500" height="500">
<path d="M0 0 C1.73636719 0.36738281 1.73636719 0.36738281 3.5078125 0.7421875 C16.10507445 3.71398416 26.86820235 9.57339517 38 16 C38 16.66 38 17.32 38 18 C39.02287109 18.29003906 39.02287109 18.29003906 40.06640625 18.5859375 C44.13359287 20.54641893 46.81482924 23.41079331 49.9375 26.625 C50.87227173 27.57560303 50.87227173 27.57560303 51.82592773 28.54541016 C61.5664504 38.56943809 61.5664504 38.56943809 63.86555481 44.07131958 C64.99195119 46.53726625 66.00684027 48.14554047 68 50 C72.40477098 51.18536137 76.72477715 51.02254297 81.26171875 50.9296875 C83.25001758 50.93906086 85.23831641 50.94844204 87.22661304 50.95826912 C90.009491 50.96188671 92.79150274 50.92871665 95.57415771 50.89630127 C100.42176182 50.84744022 105.26960149 50.85761248 110.11738586 50.86599731 C112.69406998 50.86677236 115.27080404 50.85417036 117.84733582 50.82614136 C131.82343152 50.75590584 145.45854421 53.11876065 156 63 C158.57565274 65.8490766 160.82027235 68.84016061 163 72 C163.56074219 72.80824219 164.12148437 73.61648437 164.69921875 74.44921875 C172.49796588 86.47779483 172.1798201 99.42096552 169.3125 113.0625 C167.5360155 121.14867821 165.45006655 129.15179837 163.296875 137.14453125 C161.91275049 142.29082397 160.60465296 147.45494119 159.3125 152.625 C159.11019775 153.42993896 158.90789551 154.23487793 158.69946289 155.06420898 C157.74119737 158.9056524 156.84993794 162.74013756 156.06640625 166.62109375 C155.1177911 170.9291328 153.60464873 174.49116967 151.625 178.4375 C151.33367187 179.04787109 151.04234375 179.65824219 150.7421875 180.28710938 C148.93975554 183.87220978 147.62008102 185.39852383 144 187 C143.32780662 188.33055563 142.66174211 189.66421574 142 191 C139.85546875 192.96484375 139.85546875 192.96484375 137.1875 194.9375 C136.33542969 195.58589844 135.48335937 196.23429688 134.60546875 196.90234375 C125.33079106 202.77497496 115.77210377 204.74186693 104.95776367 204.65942383 C103.72691544 204.66990753 102.4960672 204.68039124 101.22792053 204.69119263 C97.89775372 204.71482345 94.56895877 204.71692781 91.23881316 204.70889878 C87.74206689 204.70574534 84.24551804 204.73089015 80.74885559 204.75285339 C74.14771519 204.79010886 67.5467807 204.80243033 60.94554549 204.8054778 C53.42170985 204.81018888 45.89807792 204.84317739 38.37433279 204.87837565 C22.91623639 204.9500682 7.45826384 204.986788 -8 205 C-8.803473 207.99764202 -9.60140471 210.99673352 -10.3984375 213.99609375 C-10.62329834 214.83474976 -10.84815918 215.67340576 -11.07983398 216.53747559 C-12.76545532 222.89630488 -14.09256665 229.25974689 -15.3203125 235.72265625 C-16.07444692 239.35897107 -17.12304502 242.81808908 -18.25 246.3515625 C-19.51131312 250.80557445 -20.3091587 255.35036398 -21.15625 259.8984375 C-22.26809899 265.30325896 -23.66168888 270.64675551 -25 276 C-33.25 276 -41.5 276 -50 276 C-50 240.69 -50 205.38 -50 169 C-46.29499816 170.48200074 -43.32738 171.908504 -40 174 C-40.165 173.319375 -40.33 172.63875 -40.5 171.9375 C-41.09338776 168.4513469 -41.38498836 165.52905993 -41 162 C-38.625 159.75 -38.625 159.75 -36 158 C-35.34 157.01 -34.68 156.02 -34 155 C-34.67546875 155.00902344 -35.3509375 155.01804687 -36.046875 155.02734375 C-43.19094164 154.78989645 -43.19094164 154.78989645 -45.484375 152.55078125 C-46.51454427 150.72421189 -47.2859337 148.97144392 -48 147 C-48.33281982 146.31502441 -48.66563965 145.63004883 -49.00854492 144.92431641 C-51.11563564 138.70941057 -50.65313416 131.85104117 -50.75512695 125.34472656 C-50.79331368 123.53451342 -50.85477543 121.72463889 -50.93969727 119.91601562 C-51.64034481 104.85552122 -51.64034481 104.85552122 -47.59912109 100.28417969 C-44.7849835 98.49281668 -42.10290078 97.20439864 -39 96 C-37.515 95.01 -37.515 95.01 -36 94 C-31.53269496 94.23512132 -29.35563955 96.21727452 -26 99 C-24.02288349 100.04451438 -22.02749004 101.05698138 -20 102 C-20.2165625 100.948125 -20.2165625 100.948125 -20.4375 99.875 C-22.71910112 88.21348315 -22.71910112 88.21348315 -22 83 C-19.1875 80.1875 -19.1875 80.1875 -16 78 C-14.9805881 77.01979625 -13.97753644 76.02196992 -13 75 C-11.66666667 73.66666667 -10.33333333 72.33333333 -9 71 C-9.70125 71.01160156 -10.4025 71.02320313 -11.125 71.03515625 C-16.86113102 71.08971184 -22.32778253 70.85618377 -28 70 C-28.33773438 69.08476562 -28.67546875 68.16953125 -29.0234375 67.2265625 C-29.46945313 66.03804688 -29.91546875 64.84953125 -30.375 63.625 C-30.81585937 62.44164062 -31.25671875 61.25828125 -31.7109375 60.0390625 C-32.7950342 56.95506554 -32.7950342 56.95506554 -35 55 C-35.33773437 55.91523438 -35.67546875 56.83046875 -36.0234375 57.7734375 C-36.46945313 58.96195313 -36.91546875 60.15046875 -37.375 61.375 C-37.81585938 62.55835938 -38.25671875 63.74171875 -38.7109375 64.9609375 C-40 68 -40 68 -42 70 C-44.64 70.33 -47.28 70.66 -50 71 C-50 48.56 -50 26.12 -50 3 C-33.43921601 -2.52026133 -17.10758551 -3.86586997 0 0 Z M36 39 C33.23089251 42.92290228 32.83982952 44.9610229 32 50 C25.565 50.495 25.565 50.495 19 51 C20.32 52.32 21.64 53.64 23 55 C23.66 55 24.32 55 25 55 C25 55.66 25 56.32 25 57 C25.66 57 26.32 57 27 57 C26.85737588 58.5627962 26.71074489 60.12522696 26.5625 61.6875 C26.48128906 62.55761719 26.40007812 63.42773438 26.31640625 64.32421875 C26.0091178 66.92289271 25.54837616 69.44244733 25 72 C25.80824219 71.53207031 26.61648437 71.06414062 27.44921875 70.58203125 C28.51785156 69.99808594 29.58648437 69.41414063 30.6875 68.8125 C31.74324219 68.22082031 32.79898438 67.62914062 33.88671875 67.01953125 C37 66 37 66 39.64453125 67.19921875 C40.81048828 68.09060547 40.81048828 68.09060547 42 69 C43.32608822 69.68096422 44.65686601 70.35330586 46 71 C45.78601563 70.19175781 45.57203125 69.38351563 45.3515625 68.55078125 C44.62213252 65.29971967 44.05217478 62.33483793 44 59 C45.68629505 56.42128257 47.2937431 55.62375414 50 54 C50 53.34 50 52.68 50 52 C50.66 51.67 51.32 51.34 52 51 C48.04 50.67 44.08 50.34 40 50 C39.01 46.37 38.02 42.74 37 39 C36.67 39 36.34 39 36 39 Z M79 104 C77.79067614 107.97457569 76.79956149 111.65061847 76.578125 115.80078125 C76.10324549 121.25673384 74.60370193 126.0562953 72.75 131.1875 C72.46253906 132.03763672 72.17507812 132.88777344 71.87890625 133.76367188 C70.41892068 137.89179702 68.88823636 141.40153164 66.265625 144.92578125 C63.70336559 147.76602149 63.70336559 147.76602149 64 151 C69.1777593 151.09908128 74.35496347 151.17156806 79.53344727 151.21972656 C81.29396175 151.23980786 83.05440982 151.26707879 84.81469727 151.30175781 C87.34928802 151.35043112 89.88299495 151.37300305 92.41796875 151.390625 C93.59325386 151.42159271 93.59325386 151.42159271 94.7922821 151.45318604 C98.39918291 151.45465787 100.75312517 151.13944354 103.91455078 149.35375977 C106.38299747 146.56772669 107.08772157 144.55866542 107.94921875 140.94921875 C108.23990234 139.77552734 108.53058594 138.60183594 108.83007812 137.39257812 C109.11302734 136.16990234 109.39597656 134.94722656 109.6875 133.6875 C110.2743418 131.2746428 110.86157011 128.86187957 111.44921875 126.44921875 C111.71702148 125.3214502 111.98482422 124.19368164 112.26074219 123.03173828 C112.84988815 120.61561721 113.48038855 118.23213829 114.18359375 115.84765625 C115.09163403 112.68037698 115.4462325 110.27237167 115 107 C112.57846847 104.43573592 111.14919294 104.01498158 107.60839844 103.65942383 C106.2887207 103.67513428 104.96904297 103.69084473 103.609375 103.70703125 C102.55245453 103.71339851 102.55245453 103.71339851 101.47418213 103.71989441 C99.23239288 103.73663462 96.99151569 103.77427596 94.75 103.8125 C93.22657552 103.82755296 91.70313689 103.8412403 90.1796875 103.85351562 C86.45283059 103.88652209 82.72650437 103.93827146 79 104 Z " fill="#035AB1" transform="translate(50,155)"/>
<path d="M0 0 C1.66647841 0.00056502 3.33295731 0.00024578 4.99943542 -0.00088501 C9.49667798 -0.00145598 13.99381262 0.01025669 18.49103022 0.02426291 C23.20087281 0.03681313 27.91071821 0.03794414 32.62057495 0.04031372 C41.52738141 0.04651592 50.43413844 0.06290961 59.34092319 0.0830127 C69.4860579 0.10541102 79.63119505 0.11637501 89.77634835 0.12640357 C110.63461783 0.147277 131.49284291 0.18242836 152.35107422 0.22705078 C152.2053937 1.65166878 152.05608279 3.0759158 151.90527344 4.5 C151.82252167 5.2931662 151.7397699 6.0863324 151.6545105 6.90353394 C151.23048775 10.15042322 150.3831539 13.2089142 149.47607422 16.35205078 C147.73355571 22.55387547 146.39343656 28.76017164 145.25732422 35.10595703 C143.91330562 41.21776576 142.07023575 47.20998542 140.35107422 53.22705078 C91.84107422 53.55705078 43.33107422 53.88705078 -6.64892578 54.22705078 C-8.17323726 58.79998521 -9.29335681 62.96845975 -10.21142578 67.66455078 C-10.46021484 68.92138672 -10.70900391 70.17822266 -10.96533203 71.47314453 C-12.52658681 78.39945305 -12.52658681 78.39945305 -11.64892578 85.22705078 C-10.49349274 85.23291702 -9.33805969 85.23878326 -8.14761353 85.24482727 C2.76878593 85.30216874 13.68498837 85.37498989 24.60118675 85.46276569 C30.21262537 85.50739451 35.82399263 85.54666715 41.43554688 85.57348633 C46.85624465 85.59959396 52.27666673 85.6400491 57.69719315 85.69023705 C59.75987938 85.70685538 61.82261324 85.71840087 63.8853569 85.72466469 C66.78616638 85.73436066 69.6862785 85.76248521 72.58691406 85.79467773 C73.42993073 85.79324265 74.27294739 85.79180756 75.14151001 85.79032898 C87.65665335 85.98533478 96.75302767 90.98673908 106.10107422 98.89501953 C107.35107422 100.22705078 107.35107422 100.22705078 107.35107422 102.22705078 C108.01107422 102.22705078 108.67107422 102.22705078 109.35107422 102.22705078 C117.07688554 112.00572054 120.76181304 124.7750933 119.63916016 137.13378906 C118.67971371 144.10522448 116.72709161 150.91800279 114.97070312 157.72070312 C114.08924033 161.28614718 113.40448137 164.86734429 112.72607422 168.47705078 C111.81190818 173.21831872 110.67709234 177.66769245 109.02294922 182.19970703 C108.32445701 184.30736666 107.9279359 186.35523174 107.53857422 188.53955078 C105.88203064 196.46033479 101.75431805 204.23316896 96.35107422 210.22705078 C95.69107422 210.22705078 95.03107422 210.22705078 94.35107422 210.22705078 C94.01076172 211.15517578 94.01076172 211.15517578 93.66357422 212.10205078 C91.97177587 214.84115287 90.35863261 215.2772955 87.35107422 216.22705078 C87.35107422 216.88705078 87.35107422 217.54705078 87.35107422 218.22705078 C75.73844696 224.35007243 66.26132364 225.65708143 53.35668945 225.56762695 C51.64109817 225.5667797 49.92550581 225.56725774 48.20991516 225.56895447 C43.57413592 225.569812 38.93859156 225.55222552 34.3028667 225.5312326 C29.45021948 225.51242537 24.59756634 225.51071217 19.74488831 225.50715637 C10.56531762 225.49784777 1.38585466 225.47325006 -7.79366869 225.4431079 C-18.24831866 225.40952696 -28.7029739 225.3930686 -39.15766442 225.3780216 C-60.65481156 225.34669944 -82.15186187 225.29396204 -103.64892578 225.22705078 C-103.19061884 222.72133622 -102.729221 220.21625378 -102.26611328 217.71142578 C-102.13873779 217.0132373 -102.0113623 216.31504883 -101.88012695 215.59570312 C-100.75196486 209.5155772 -99.32979918 203.53350849 -97.76220703 197.55126953 C-96.92145149 194.30988533 -96.11280775 191.0617711 -95.31689453 187.80908203 C-95.09179199 186.89288086 -94.86668945 185.97667969 -94.63476562 185.03271484 C-94.19144063 183.22662362 -93.75030211 181.41999407 -93.31152344 179.61279297 C-93.10962402 178.79584961 -92.90772461 177.97890625 -92.69970703 177.13720703 C-92.52093018 176.40638916 -92.34215332 175.67557129 -92.15795898 174.92260742 C-91.64892578 173.22705078 -91.64892578 173.22705078 -90.64892578 172.22705078 C-88.78281458 172.12705267 -86.91288515 172.0979562 -85.0440979 172.0957489 C-83.82700638 172.09174072 -82.60991486 172.08773254 -81.35594177 172.08360291 C-79.99478147 172.08407805 -78.63362119 172.08461418 -77.27246094 172.08520508 C-75.84862662 172.08217524 -74.42479328 172.07865428 -73.0009613 172.07467651 C-69.92780066 172.06677372 -66.8546517 172.06163743 -63.7814827 172.05838585 C-58.92462843 172.05248927 -54.06784797 172.03596202 -49.21102905 172.01704407 C-47.55015759 172.01070631 -45.88928609 172.00438069 -44.22841454 171.9980669 C-42.98057375 171.99331819 -42.98057375 171.99331819 -41.70752406 171.98847353 C-30.3953612 171.94634884 -19.08323216 171.91341492 -7.77099609 171.90112305 C-0.14733955 171.8927539 7.47613504 171.87030514 15.09970057 171.83176738 C19.1368874 171.81196593 23.17380198 171.7996155 27.2110405 171.80460167 C31.00817891 171.809234 34.80480098 171.79552134 38.60183525 171.76758957 C39.99703336 171.76065346 41.3922846 171.76057716 42.78748131 171.76778984 C44.68908372 171.77662905 46.59075495 171.75869259 48.49227905 171.73930359 C49.55749472 171.73691524 50.62271038 171.73452688 51.72020531 171.73206615 C54.46896864 171.46622261 54.46896864 171.46622261 56.16628456 169.34566975 C57.50297448 166.95542554 58.16262593 164.8338552 58.77294922 162.16455078 C59.10359375 160.72208984 59.10359375 160.72208984 59.44091797 159.25048828 C59.65876953 158.25275391 59.87662109 157.25501953 60.10107422 156.22705078 C60.33439453 155.22931641 60.56771484 154.23158203 60.80810547 153.20361328 C62.31417739 147.20043496 62.31417739 147.20043496 61.35107422 141.22705078 C59.32060168 139.19657824 55.10737371 140.06253815 52.31811523 140.0534668 C51.05451927 140.04343628 51.05451927 140.04343628 49.76539612 140.03320312 C47.92819755 140.01911399 46.09098107 140.00723238 44.25375557 139.99725533 C41.33983604 139.98087188 38.42604693 139.9576299 35.51219177 139.93235779 C27.22425845 139.86154592 18.93626868 139.80172589 10.64819336 139.75024414 C5.58301646 139.71829815 0.51798392 139.676971 -4.54707527 139.63004875 C-6.47300658 139.61410651 -8.39897121 139.60174938 -10.32494926 139.59314156 C-29.62635763 139.5057099 -29.62635763 139.5057099 -37.64892578 137.22705078 C-38.43895493 137.01540787 -39.22898407 136.80376495 -40.04295349 136.58570862 C-51.60100291 133.34153649 -59.25550757 125.7383787 -65.22314453 115.53564453 C-72.74126534 101.08103404 -70.76062567 83.81180492 -66.30810547 68.64208984 C-64.59626547 62.37041532 -63.31625956 55.97524602 -61.93164062 49.62475586 C-58.82036543 35.80752998 -53.84092716 20.76875705 -42.64892578 11.22705078 C-40.47314453 10.54736328 -40.47314453 10.54736328 -38.64892578 10.22705078 C-38.64892578 9.56705078 -38.64892578 8.90705078 -38.64892578 8.22705078 C-36.86586414 7.25280061 -35.07186121 6.29857094 -33.27392578 5.35205078 C-32.27619141 4.81837891 -31.27845703 4.28470703 -30.25048828 3.73486328 C-20.48888048 -0.35188358 -10.39293276 -0.04959845 0 0 Z " fill="#FD2826" transform="translate(299.64892578125,205.77294921875)"/>
<path d="M0 0 C1.66647841 0.00056502 3.33295731 0.00024578 4.99943542 -0.00088501 C9.49667798 -0.00145598 13.99381262 0.01025669 18.49103022 0.02426291 C23.20087281 0.03681313 27.91071821 0.03794414 32.62057495 0.04031372 C41.52738141 0.04651592 50.43413844 0.06290961 59.34092319 0.0830127 C69.4860579 0.10541102 79.63119505 0.11637501 89.77634835 0.12640357 C110.63461783 0.147277 131.49284291 0.18242836 152.35107422 0.22705078 C152.2053937 1.65166878 152.05608279 3.0759158 151.90527344 4.5 C151.82252167 5.2931662 151.7397699 6.0863324 151.6545105 6.90353394 C151.23048775 10.15042322 150.3831539 13.2089142 149.47607422 16.35205078 C147.73355571 22.55387547 146.39343656 28.76017164 145.25732422 35.10595703 C143.91330562 41.21776576 142.07023575 47.20998542 140.35107422 53.22705078 C91.84107422 53.55705078 43.33107422 53.88705078 -6.64892578 54.22705078 C-8.17323726 58.79998521 -9.29335681 62.96845975 -10.21142578 67.66455078 C-10.46021484 68.92138672 -10.70900391 70.17822266 -10.96533203 71.47314453 C-12.52658681 78.39945305 -12.52658681 78.39945305 -11.64892578 85.22705078 C-10.49349274 85.23291702 -9.33805969 85.23878326 -8.14761353 85.24482727 C2.76878593 85.30216874 13.68498837 85.37498989 24.60118675 85.46276569 C30.21262537 85.50739451 35.82399263 85.54666715 41.43554688 85.57348633 C46.85624465 85.59959396 52.27666673 85.6400491 57.69719315 85.69023705 C59.75987938 85.70685538 61.82261324 85.71840087 63.8853569 85.72466469 C66.78616638 85.73436066 69.6862785 85.76248521 72.58691406 85.79467773 C73.42993073 85.79324265 74.27294739 85.79180756 75.14151001 85.79032898 C87.65665335 85.98533478 96.75302767 90.98673908 106.10107422 98.89501953 C107.35107422 100.22705078 107.35107422 100.22705078 107.35107422 102.22705078 C108.01107422 102.22705078 108.67107422 102.22705078 109.35107422 102.22705078 C112.19047942 105.90157516 113.35107422 107.49591659 113.35107422 112.22705078 C53.95107422 112.22705078 -5.44892578 112.22705078 -66.64892578 112.22705078 C-70.0323663 102.07672924 -70.0323663 102.07672924 -70.08251953 98.31689453 C-70.09968018 97.06356323 -70.09968018 97.06356323 -70.1171875 95.78491211 C-70.10703613 94.92019287 -70.09688477 94.05547363 -70.08642578 93.16455078 C-70.07885254 92.2411792 -70.0712793 91.31780762 -70.06347656 90.36645508 C-69.88105779 82.67890204 -68.47626435 76.02899683 -66.30810547 68.64208984 C-64.59626547 62.37041532 -63.31625956 55.97524602 -61.93164062 49.62475586 C-58.82036543 35.80752998 -53.84092716 20.76875705 -42.64892578 11.22705078 C-40.47314453 10.54736328 -40.47314453 10.54736328 -38.64892578 10.22705078 C-38.64892578 9.56705078 -38.64892578 8.90705078 -38.64892578 8.22705078 C-36.86586414 7.25280061 -35.07186121 6.29857094 -33.27392578 5.35205078 C-32.27619141 4.81837891 -31.27845703 4.28470703 -30.25048828 3.73486328 C-20.48888048 -0.35188358 -10.39293276 -0.04959845 0 0 Z " fill="#045AB2" transform="translate(299.64892578125,205.77294921875)"/>
<path d="M0 0 C97.515 0.495 97.515 0.495 197 1 C197 7.76170656 197 7.76170656 195.390625 11.015625 C195.04773438 11.70914062 194.70484375 12.40265625 194.3515625 13.1171875 C193.98804688 13.82101562 193.62453125 14.52484375 193.25 15.25 C192.90195313 15.96929687 192.55390625 16.68859375 192.1953125 17.4296875 C190.24716268 21.28269491 189.10111006 23.31130762 185 25 C184.32780662 26.33055563 183.66174211 27.66421574 183 29 C180.85546875 30.96484375 180.85546875 30.96484375 178.1875 32.9375 C177.33542969 33.58589844 176.48335937 34.23429687 175.60546875 34.90234375 C166.33079106 40.77497496 156.77210377 42.74186693 145.95776367 42.65942383 C144.72691544 42.66990753 143.4960672 42.68039124 142.22792053 42.69119263 C138.89775372 42.71482345 135.56895877 42.71692781 132.23881316 42.70889878 C128.74206689 42.70574534 125.24551804 42.73089015 121.74885559 42.75285339 C115.14771519 42.79010886 108.5467807 42.80243033 101.94554549 42.8054778 C94.42170985 42.81018888 86.89807792 42.84317739 79.37433279 42.87837565 C63.91623639 42.9500682 48.45826384 42.986788 33 43 C32.196527 45.99764202 31.39859529 48.99673352 30.6015625 51.99609375 C30.37670166 52.83474976 30.15184082 53.67340576 29.92016602 54.53747559 C28.23454468 60.89630488 26.90743335 67.25974689 25.6796875 73.72265625 C24.92555308 77.35897107 23.87695498 80.81808908 22.75 84.3515625 C21.48868688 88.80557445 20.6908413 93.35036398 19.84375 97.8984375 C18.73190101 103.30325896 17.33831112 108.64675551 16 114 C7.75 114 -0.5 114 -9 114 C-9 78.69 -9 43.38 -9 7 C-5.29499816 8.48200074 -2.32738 9.908504 1 12 C0.835 11.319375 0.67 10.63875 0.5 9.9375 C0 7 0 7 0 0 Z " fill="#FC2827" transform="translate(9,317)"/>
<path d="M0 0 C13.2 0 26.4 0 40 0 C40.20054405 17.08635278 40.20054405 17.08635278 40.24414062 24.51953125 C40.27372585 29.53950297 40.3082364 34.55900776 40.37719727 39.57861328 C40.66653636 61.21928018 39.62576109 80.3481073 32.63502502 101.03076172 C31.92613366 103.2290625 31.4171433 105.40024603 31.0234375 107.67578125 C29.79509193 114.23666619 28.20059411 120.70265973 26.625 127.1875 C26.39256088 128.14869247 26.39256088 128.14869247 26.15542603 129.12930298 C24.14006903 137.46235187 22.0365476 145.75828762 19.7734375 154.02734375 C18.82430395 157.67527621 18.06921266 161.33927995 17.39453125 165.046875 C17 167 17 167 16 170 C-2.81 170 -21.62 170 -41 170 C-41 164.70277104 -40.26453176 160.91043082 -38.6875 156 C-36.66512674 149.44398605 -35.04286063 142.91206824 -33.67578125 136.18359375 C-32.87698772 132.4204913 -31.86195487 128.74735073 -30.81640625 125.046875 C-29.78490375 121.19724846 -28.89382339 117.32100852 -28 113.4375 C-26.73847756 107.96432296 -25.32928717 102.59886827 -23.64453125 97.23828125 C-22.97693913 94.9199159 -22.50308208 92.62148094 -22.0625 90.25 C-21.3010576 86.18262852 -20.24048724 82.27928278 -19.0625 78.3125 C-17.62019271 73.40013976 -16.45576247 68.52950416 -15.5 63.5 C-14.33745076 57.38398011 -12.74852627 51.51311292 -10.97265625 45.55078125 C-9.60208354 40.54736522 -8.68332905 35.48042793 -7.71484375 30.38671875 C-6.98599654 26.93365573 -5.96121411 23.76712509 -4.7578125 20.4609375 C-3.32957191 15.82283662 -2.54353472 11.02203963 -1.6484375 6.2578125 C-1 3 -1 3 0 0 Z " fill="#FD2725" transform="translate(460,261)"/>
<path d="M0 0 C27.39 0 54.78 0 83 0 C83.20625 13.24125 83.4125 26.4825 83.625 40.125 C83.71604004 44.29914551 83.80708008 48.47329102 83.90087891 52.77392578 C83.94604492 57.88842773 83.94604492 57.88842773 83.95443726 60.28610229 C83.969751 61.95361034 84.00483981 63.6210104 84.05575562 65.28781128 C84.46447029 79.37736564 84.46447029 79.37736564 80.83863831 83.39479065 C78.25580339 84.97143145 75.85685912 86.02511749 73 87 C71.74434068 87.63105534 70.49702048 88.2791883 69.26171875 88.94921875 C68.08222656 89.52285156 66.90273437 90.09648437 65.6875 90.6875 C58.11668623 94.40602362 50.64442296 98.29956893 43.18237305 102.23120117 C41.5207661 103.10620557 39.85814882 103.97929514 38.19433594 104.85009766 C36.31595455 105.83442969 34.44260917 106.82836164 32.5703125 107.82421875 C30 109 30 109 27 109 C27 109.66 27 110.32 27 111 C24.44560598 112.37174861 21.88335569 113.72225408 19.3125 115.0625 C18.59126953 115.45244141 17.87003906 115.84238281 17.12695312 116.24414062 C11.7544233 119.01626789 11.7544233 119.01626789 8.1015625 118.9375 C5.27036967 117.67451435 4.46590211 115.73282529 3.1015625 113.04296875 C0.81549076 108.8031974 -2.19904083 104.72156653 -5.68359375 101.390625 C-7 100 -7 100 -7 98 C-7.66 98 -8.32 98 -9 98 C-9 97.01 -9 96.02 -9 95 C1.24434654 89.59691408 11.48579029 84.19777045 21.87426758 79.07592773 C25.77580673 77.14221596 29.63626761 75.1432613 33.48046875 73.09765625 C34.89875977 72.34452148 34.89875977 72.34452148 36.34570312 71.57617188 C38.20285618 70.58696664 40.05716336 69.59239483 41.90820312 68.59179688 C42.75705078 68.13998047 43.60589844 67.68816406 44.48046875 67.22265625 C45.23223389 66.81797119 45.98399902 66.41328613 46.75854492 65.99633789 C49 65 49 65 54 64 C54 52.12 54 40.24 54 28 C48.51375 27.938125 43.0275 27.87625 37.375 27.8125 C34.79437744 27.74059448 34.79437744 27.74059448 32.16162109 27.66723633 C27.89884426 27.64888131 24.14253343 27.90025141 20 29 C16.73702998 32.24835035 15.46042542 35.69288886 14 40 C13.34631035 41.26916876 12.665507 42.52516519 11.9453125 43.7578125 C8.44360891 50.2352127 5.13950198 56.74746761 2.0625 63.4375 C-1.30181549 70.74783524 -5.0976581 77.73858211 -9.1171875 84.70703125 C-10.49371645 87.11452898 -11.80392361 89.50082985 -13 92 C-14.485 91.505 -14.485 91.505 -16 91 C-16 90.34 -16 89.68 -16 89 C-16.58265625 88.73960937 -17.1653125 88.47921875 -17.765625 88.2109375 C-20.14002469 86.92411249 -21.79236584 85.47747199 -23.75 83.625 C-26.51571769 81.12391947 -29.05411007 79.31717164 -32.4375 77.75 C-33.613125 77.1725 -34.78875 76.595 -36 76 C-37 73 -37 73 -36.27490234 71.07397461 C-35.88254395 70.35733643 -35.49018555 69.64069824 -35.0859375 68.90234375 C-34.65700195 68.10578369 -34.22806641 67.30922363 -33.78613281 66.48852539 C-33.32045898 65.64668701 -32.85478516 64.80484863 -32.375 63.9375 C-31.43944892 62.20608306 -30.50454562 60.47431594 -29.5703125 58.7421875 C-29.12075195 57.91557617 -28.67119141 57.08896484 -28.20800781 56.23730469 C-26.03361351 52.21019284 -24.01842604 48.10669381 -22 44 C-16.07340278 31.97502013 -9.82632107 20.13424926 -3.2265625 8.46484375 C-1.67549548 5.49160873 -1.67549548 5.49160873 0 0 Z " fill="#FDBE05" transform="translate(126,74)"/>
<path d="M0 0 C3.59122072 1.19011384 5.37998568 3.12271762 8 5.828125 C8.88300781 6.72402344 9.76601563 7.61992188 10.67578125 8.54296875 C12.6875 10.890625 12.6875 10.890625 12.6875 12.890625 C13.3475 12.890625 14.0075 12.890625 14.6875 12.890625 C14.6875 13.550625 14.6875 14.210625 14.6875 14.890625 C15.56148437 15.27734375 15.56148437 15.27734375 16.453125 15.671875 C18.8677903 16.98896517 20.50490177 18.44150884 22.4375 20.390625 C23.35789062 21.30328125 23.35789062 21.30328125 24.296875 22.234375 C25.6875 23.890625 25.6875 23.890625 25.6875 25.890625 C26.3475 25.890625 27.0075 25.890625 27.6875 25.890625 C27.6875 26.550625 27.6875 27.210625 27.6875 27.890625 C28.56148437 28.27734375 28.56148437 28.27734375 29.453125 28.671875 C31.8677903 29.98896517 33.50490177 31.44150884 35.4375 33.390625 C36.05109375 33.9990625 36.6646875 34.6075 37.296875 35.234375 C38.6875 36.890625 38.6875 36.890625 38.6875 38.890625 C39.3475 38.890625 40.0075 38.890625 40.6875 38.890625 C40.6875 39.550625 40.6875 40.210625 40.6875 40.890625 C41.56148437 41.27734375 41.56148437 41.27734375 42.453125 41.671875 C44.8677903 42.98896517 46.50490177 44.44150884 48.4375 46.390625 C49.05109375 46.9990625 49.6646875 47.6075 50.296875 48.234375 C51.6875 49.890625 51.6875 49.890625 51.6875 51.890625 C52.3475 51.890625 53.0075 51.890625 53.6875 51.890625 C53.6875 52.550625 53.6875 53.210625 53.6875 53.890625 C55.0075 54.550625 56.3275 55.210625 57.6875 55.890625 C57.50356689 56.50228516 57.31963379 57.11394531 57.13012695 57.74414062 C55.84261976 62.03009261 54.5593952 66.31714255 53.29296875 70.609375 C50.67929569 79.44001959 47.96511154 88.22007678 45.01293945 96.94360352 C42.95141925 103.04776684 40.99905311 109.18329303 39.0625 115.328125 C36.77223814 122.58395461 34.42316969 129.78807884 31.6875 136.890625 C31.10226563 136.76945313 30.51703125 136.64828125 29.9140625 136.5234375 C20.89851672 134.76364628 11.81642727 133.83465048 2.6875 132.890625 C3.68164819 125.48644667 5.66489735 119.00245788 8.4609375 112.0859375 C9.91478341 108.29853 10.93599564 104.48636106 11.9453125 100.5625 C12.96583672 96.8886128 14.30819189 93.36166046 15.64453125 89.79296875 C17.16843702 85.55228716 18.46076703 81.24814582 19.7578125 76.93359375 C20.39897392 74.83500239 21.07436512 72.746669 21.77734375 70.66796875 C22.73221593 67.75417424 23.24433644 65.91345139 22.6875 62.890625 C20.4780817 60.78879042 20.4780817 60.78879042 17.6875 58.890625 C15.99987149 57.2451872 14.3334651 55.57773923 12.6875 53.890625 C11.841875 53.065625 10.99625 52.240625 10.125 51.390625 C7.6875 48.890625 7.6875 48.890625 5.6875 46.203125 C3.49210123 43.66469518 1.85979779 42.85993821 -1.3125 41.890625 C-5.78534003 45.3411016 -9.77717091 48.97146363 -13.3125 53.390625 C-15.47916081 56.09895101 -17.83025319 58.47043436 -20.3125 60.890625 C-21.64704161 62.22274896 -22.98057835 63.55588148 -24.3125 64.890625 C-24.08175781 65.48746094 -23.85101562 66.08429688 -23.61328125 66.69921875 C-21.52148448 72.26356351 -19.69592127 77.86387065 -18.0625 83.578125 C-15.98315764 90.83251599 -13.65591795 97.98828551 -11.25 105.140625 C-3.3125 128.76448917 -3.3125 128.76448917 -3.3125 132.890625 C-12.2225 133.880625 -21.1325 134.870625 -30.3125 135.890625 C-30.38022109 121.87826253 -30.43528463 107.86600839 -30.46793652 93.85351944 C-30.48360612 87.34727153 -30.50486828 80.84114118 -30.53881836 74.33496094 C-30.57136523 68.05855907 -30.58934325 61.78227044 -30.59713173 55.50579071 C-30.60268361 53.10874397 -30.61352478 50.71170356 -30.62969017 48.3147049 C-30.65140193 44.96259569 -30.65446949 41.61095704 -30.65307617 38.25878906 C-30.663862 37.26329041 -30.67464783 36.26779175 -30.6857605 35.24212646 C-30.68163651 34.32789917 -30.67751251 33.41367187 -30.67326355 32.47174072 C-30.67741162 31.28262777 -30.67741162 31.28262777 -30.68164349 30.06949234 C-30.21551644 27.31818009 -29.2040887 25.91351096 -27.3125 23.890625 C-26.6525 23.890625 -25.9925 23.890625 -25.3125 23.890625 C-25.3125 23.230625 -25.3125 22.570625 -25.3125 21.890625 C-23.4375 19.765625 -23.4375 19.765625 -21.3125 17.890625 C-20.6525 17.890625 -19.9925 17.890625 -19.3125 17.890625 C-19.3125 17.230625 -19.3125 16.570625 -19.3125 15.890625 C-16.9375 13.265625 -16.9375 13.265625 -14.3125 10.890625 C-13.6525 10.890625 -12.9925 10.890625 -12.3125 10.890625 C-12.3125 10.230625 -12.3125 9.570625 -12.3125 8.890625 C-10.4375 6.765625 -10.4375 6.765625 -8.3125 4.890625 C-7.6525 4.890625 -6.9925 4.890625 -6.3125 4.890625 C-6.3125 4.230625 -6.3125 3.570625 -6.3125 2.890625 C-4.17562267 0.75374767 -3.06938286 -0.14517351 0 0 Z " fill="#FDBF06" transform="translate(30.3125,0.109375)"/>
<path d="M0 0 C1.73636719 0.36738281 1.73636719 0.36738281 3.5078125 0.7421875 C16.10507445 3.71398416 26.86820235 9.57339517 38 16 C38 16.66 38 17.32 38 18 C39.02287109 18.29003906 39.02287109 18.29003906 40.06640625 18.5859375 C44.13348621 20.54636752 46.81509243 23.41064628 49.9375 26.625 C50.87227173 27.57669067 50.87227173 27.57669067 51.82592773 28.54760742 C57.31807775 34.20467383 61.84788372 39.81154227 65.65234375 46.73046875 C66.09441162 47.53250732 66.53647949 48.3345459 66.99194336 49.16088867 C67.32460205 49.76779541 67.65726074 50.37470215 68 51 C63.89584811 51.02898097 59.79172247 51.0467922 55.6875 51.0625 C54.52025391 51.07087891 53.35300781 51.07925781 52.15039062 51.08789062 C50.47299805 51.09272461 50.47299805 51.09272461 48.76171875 51.09765625 C47.2142395 51.10551147 47.2142395 51.10551147 45.63549805 51.11352539 C43 51 43 51 40 50 C38.83203125 47.71484375 38.83203125 47.71484375 37.8125 44.9375 C37.29623047 43.55884766 37.29623047 43.55884766 36.76953125 42.15234375 C36.51558594 41.44207031 36.26164062 40.73179687 36 40 C35.86207031 40.69867188 35.72414063 41.39734375 35.58203125 42.1171875 C34.72755867 45.17940902 33.85673656 47.40830522 32 50 C27.7825645 51.76797982 23.53286309 51.82052623 19 52 C17.56103661 52.07915127 16.12223447 52.16127956 14.68359375 52.24609375 C12.4687919 52.37404923 10.25411751 52.49978726 8.03857422 52.61425781 C-3.14261649 53.22029821 -11.30961457 55.843212 -20 63 C-20.66 63 -21.32 63 -22 63 C-22 63.66 -22 64.32 -22 65 C-23.95927063 66.7143618 -25.95880212 68.38405168 -28 70 C-28.33773438 69.08476562 -28.67546875 68.16953125 -29.0234375 67.2265625 C-29.46945313 66.03804688 -29.91546875 64.84953125 -30.375 63.625 C-30.81585937 62.44164062 -31.25671875 61.25828125 -31.7109375 60.0390625 C-32.7950342 56.95506554 -32.7950342 56.95506554 -35 55 C-35.33773437 55.91523438 -35.67546875 56.83046875 -36.0234375 57.7734375 C-36.46945313 58.96195313 -36.91546875 60.15046875 -37.375 61.375 C-37.81585938 62.55835938 -38.25671875 63.74171875 -38.7109375 64.9609375 C-40 68 -40 68 -42 70 C-44.64 70.33 -47.28 70.66 -50 71 C-50 48.56 -50 26.12 -50 3 C-33.43921601 -2.52026133 -17.10758551 -3.86586997 0 0 Z " fill="#FDBE04" transform="translate(50,155)"/>
<path d="M0 0 C1.74135223 0.00045319 1.74135223 0.00045319 3.5178833 0.00091553 C4.76591736 0.02156067 6.01395142 0.04220581 7.29980469 0.06347656 C8.5815155 0.06913635 9.86322632 0.07479614 11.18377686 0.08062744 C14.58381597 0.09586688 17.98316662 0.13513241 21.38293457 0.17944336 C24.85512988 0.22043357 28.32743693 0.23864635 31.79980469 0.25878906 C38.60737835 0.30162957 45.41449593 0.36985944 52.22167969 0.45410156 C55.14880599 9.23548048 50.80222322 20.5613264 47.90917969 28.95410156 C47.62558594 29.78997803 47.34199219 30.62585449 47.04980469 31.48706055 C45.1130051 36.85468542 42.65115534 40.90444543 39.22167969 45.45410156 C38.89167969 46.44410156 38.56167969 47.43410156 38.22167969 48.45410156 C19.08167969 48.45410156 -0.05832031 48.45410156 -19.77832031 48.45410156 C-17.55822462 36.24357525 -17.55822462 36.24357525 -16.34082031 31.70410156 C-14.81800805 25.81281776 -13.64750711 19.87655335 -12.52441406 13.89941406 C-10.79975148 5.93526539 -9.1598215 -0.07965062 0 0 Z " fill="#FEBE01" transform="translate(75.7783203125,257.5458984375)"/>
<path d="M0 0 C13.2 0 26.4 0 40 0 C40 19.14 40 38.28 40 58 C22.18 58 4.36 58 -14 58 C-12.68 52.72 -11.36 47.44 -10 42 C-8.8500273 36.15964417 -8.8500273 36.15964417 -7.71484375 30.31640625 C-6.97753811 26.89579155 -5.95144566 23.74028754 -4.7578125 20.4609375 C-3.32957191 15.82283662 -2.54353472 11.02203963 -1.6484375 6.2578125 C-1 3 -1 3 0 0 Z " fill="#0259B2" transform="translate(460,261)"/>
<path d="M0 0 C8.58 0 17.16 0 26 0 C26 13.53 26 27.06 26 41 C14.12 41 2.24 41 -10 41 C-9.30687589 36.14813126 -8.58217696 32.21465407 -7.1875 27.625 C-5.33399652 21.32714692 -3.76725854 14.99793253 -2.30737305 8.59814453 C-1.64011851 5.68031961 -0.94730761 2.84192284 0 0 Z " fill="#0259B2" transform="translate(474,206)"/>
<path d="M0 0 C3.10408807 -0.05807043 6.2080364 -0.09361914 9.3125 -0.125 C10.19357422 -0.14175781 11.07464844 -0.15851563 11.98242188 -0.17578125 C12.82998047 -0.18222656 13.67753906 -0.18867188 14.55078125 -0.1953125 C15.72120972 -0.21102295 15.72120972 -0.21102295 16.9152832 -0.22705078 C19 0 19 0 22 2 C23.79791356 6.41306055 23.47716663 11.5685001 22 16 C19.4375 17.6875 19.4375 17.6875 17 19 C17.99 22.63 18.98 26.26 20 30 C24.05015577 24.84525629 27.241925 19.92644215 30 14 C30.74588197 12.49794804 31.49578357 10.99788437 32.25 9.5 C33.11625 7.7675 33.11625 7.7675 34 6 C34.66 6 35.32 6 36 6 C36.66 4.02 37.32 2.04 38 0 C39.98 0 41.96 0 44 0 C44 8.91 44 17.82 44 27 C40.37 27 36.74 27 33 27 C32.34 28.65 31.68 30.3 31 32 C30.505 32.99 30.505 32.99 30 34 C23.4 34 16.8 34 10 34 C7.75 26.125 7.75 26.125 8 22 C6.68 21.67 5.36 21.34 4 21 C3.93941406 21.85464844 3.87882812 22.70929688 3.81640625 23.58984375 C3.73261719 24.69457031 3.64882813 25.79929687 3.5625 26.9375 C3.48128906 28.03964844 3.40007812 29.14179688 3.31640625 30.27734375 C3 33 3 33 2 34 C0.48071962 34.07179964 -1.04167482 34.08392007 -2.5625 34.0625 C-3.38878906 34.05347656 -4.21507812 34.04445313 -5.06640625 34.03515625 C-5.70449219 34.02355469 -6.34257812 34.01195312 -7 34 C-5.42031085 22.4950941 -3.32687012 11.13675672 0 0 Z M8 7 C7.34 9.31 6.68 11.62 6 14 C8.12939828 15.35026777 8.12939828 15.35026777 11.125 14.0625 C12.548125 13.5365625 12.548125 13.5365625 14 13 C14 11.35 14 9.7 14 8 C11.03 7.505 11.03 7.505 8 7 Z M41 12 C39.68 14.31 38.36 16.62 37 19 C38.98 19 40.96 19 43 19 C42.67 16.69 42.34 14.38 42 12 C41.67 12 41.34 12 41 12 Z " fill="#3E3E3E" transform="translate(456,451)"/>
<path d="M0 0 C3.3 0 6.6 0 10 0 C11.12752649 2.22791998 12.25208139 4.45725887 13.375 6.6875 C13.69210937 7.31333984 14.00921875 7.93917969 14.3359375 8.58398438 C16.05472081 12.00364701 17.64469217 15.42007074 19 19 C20.98363508 12.76571832 22.00318287 6.45810245 23 0 C25.97 0 28.94 0 32 0 C30.42031085 11.5049059 28.32687012 22.86324328 25 34 C22.03 34 19.06 34 16 34 C14.87247351 31.77208002 13.74791861 29.54274113 12.625 27.3125 C12.30789063 26.68666016 11.99078125 26.06082031 11.6640625 25.41601562 C9.94527919 21.99635299 8.35530783 18.57992926 7 15 C5.22738492 19.03077255 4.26072729 23.00464455 3.375 27.3125 C3.11460937 28.56675781 2.85421875 29.82101562 2.5859375 31.11328125 C2.39257812 32.06589844 2.19921875 33.01851563 2 34 C-0.64 34 -3.28 34 -6 34 C-6.125 27.25 -6.125 27.25 -5 25 C-4.6789557 23.23425633 -4.39294936 21.46207693 -4.125 19.6875 C-3.06233553 13.04584708 -1.58107402 6.53510596 0 0 Z " fill="#414141" transform="translate(390,451)"/>
<path d="M0 0 C6.93 0 13.86 0 21 0 C20.67 2.64 20.34 5.28 20 8 C16.04 8 12.08 8 8 8 C7.67 9.65 7.34 11.3 7 13 C10.3 13 13.6 13 17 13 C16.67 15.64 16.34 18.28 16 21 C12.37 21 8.74 21 5 21 C5 22.32 5 23.64 5 25 C8.63 25.33 12.26 25.66 16 26 C16.125 31.75 16.125 31.75 15 34 C8.07 34 1.14 34 -6 34 C-4.81981633 22.29651191 -2.87572014 11.40702322 0 0 Z " fill="#484848" transform="translate(365,451)"/>
<path d="M0 0 C0.87914062 0.01804687 1.75828125 0.03609375 2.6640625 0.0546875 C4.8181832 0.10151621 6.97173774 0.17325006 9.125 0.25 C10.38041557 4.01624671 9.49561958 5.62188934 8.125 9.25 C7.14660156 9.10691406 7.14660156 9.10691406 6.1484375 8.9609375 C-1.0869298 7.97979119 -1.0869298 7.97979119 -7.875 10.25 C-10.50545216 13.81383841 -11.07997465 16.3330044 -10.5625 20.625 C-10.335625 21.82125 -10.10875 23.0175 -9.875 24.25 C-4.70930559 26.04217969 -1.36446087 26.37029814 4.125 25.25 C4.125 27.89 4.125 30.53 4.125 33.25 C-0.93377352 35.86097988 -6.48735632 36.24259881 -11.94140625 34.64453125 C-14.70999328 33.50588481 -16.75037004 32.37462996 -18.875 30.25 C-18.875 29.26 -18.875 28.27 -18.875 27.25 C-19.535 27.25 -20.195 27.25 -20.875 27.25 C-21.77647418 11.86484074 -21.77647418 11.86484074 -17.5546875 5.86328125 C-11.83507799 0.36979583 -7.60742413 -0.29788107 0 0 Z " fill="#424242" transform="translate(350.875,450.75)"/>
<path d="M0 0 C8.91 0 17.82 0 27 0 C27 2.64 27 5.28 27 8 C23.7 8 20.4 8 17 8 C16.80664062 9.29035156 16.61328125 10.58070313 16.4140625 11.91015625 C16.15127805 13.62764035 15.88824396 15.34508627 15.625 17.0625 C15.43550781 18.33383789 15.43550781 18.33383789 15.2421875 19.63085938 C14.48090038 24.56019346 13.48619868 29.23770249 12 34 C8.7 34 5.4 34 2 34 C3.65 25.42 5.3 16.84 7 8 C4.36 8 1.72 8 -1 8 C-0.67 5.36 -0.34 2.72 0 0 Z " fill="#414141" transform="translate(425,451)"/>
<path d="M0 0 C97.515 0.495 97.515 0.495 197 1 C197 7.75 197 7.75 195.25 11.0859375 C194.70859375 12.13974609 194.70859375 12.13974609 194.15625 13.21484375 C193.58390625 14.28412109 193.58390625 14.28412109 193 15.375 C192.42765625 16.47908203 192.42765625 16.47908203 191.84375 17.60546875 C190.90668265 19.4093234 189.95480793 21.20547259 189 23 C188.67 23 188.34 23 188 23 C187.8125 19.625 187.8125 19.625 188 16 C188.99 15.34 189.98 14.68 191 14 C191.72965366 11.43717258 191.72965366 11.43717258 192 9 C192.66 9 193.32 9 194 9 C194 7.35 194 5.7 194 4 C130.64 3.67 67.28 3.34 2 3 C2 4.65 2 6.3 2 8 C1.34 7.67 0.68 7.34 0 7 C0 4.69 0 2.38 0 0 Z " fill="#A44863" transform="translate(9,317)"/>
<path d="M0 0 C0 0.66 0 1.32 0 2 C-86.625 2.495 -86.625 2.495 -175 3 C-175 4.65 -175 6.3 -175 8 C-175.99 8.495 -175.99 8.495 -177 9 C-177.6690776 7.68872739 -178.33519806 6.3759455 -179 5.0625 C-179.37125 4.33160156 -179.7425 3.60070312 -180.125 2.84765625 C-181 1 -181 1 -181 0 C-157.69587632 -0.15378377 -134.3917225 -0.3018202 -111.08751869 -0.4429636 C-100.26763631 -0.50862977 -89.44777195 -0.57619592 -78.62792969 -0.64819336 C-69.20033282 -0.71092174 -59.77272163 -0.77012763 -50.34507596 -0.82505554 C-45.35053945 -0.8542793 -40.35602833 -0.8852995 -35.3615303 -0.92053413 C-30.66506336 -0.95361069 -25.96859193 -0.98199411 -21.27207375 -1.00670624 C-19.54424127 -1.01663819 -17.81641786 -1.02831624 -16.0886097 -1.04183006 C-13.73775237 -1.05996132 -11.38694374 -1.07192934 -9.03604126 -1.08229065 C-7.05879531 -1.09473485 -7.05879531 -1.09473485 -5.041605 -1.10743046 C-2 -1 -2 -1 0 0 Z " fill="#A84663" transform="translate(415,318)"/>
<path d="M0 0 C0.69353805 -0.00170885 1.3870761 -0.0034177 2.10163045 -0.00517833 C4.42481279 -0.00847176 6.7477061 0.00252789 9.07086182 0.01345825 C10.73645521 0.0140224 12.40204911 0.01370574 14.06764221 0.01257324 C18.59003188 0.01199886 23.1123157 0.023767 27.63468075 0.03772116 C32.36057437 0.05021428 37.08647035 0.0513979 41.81237793 0.05377197 C50.76188309 0.05999091 59.71133945 0.07640734 68.66082311 0.09647095 C78.84934879 0.11881707 89.03787679 0.12982014 99.22642088 0.13986182 C120.18533729 0.16077319 141.14420976 0.19595723 162.10308838 0.24050903 C162.10308838 1.23050903 162.10308838 2.22050903 162.10308838 3.24050903 C105.01308838 2.91050903 47.92308838 2.58050903 -10.89691162 2.24050903 C-6.62713919 0.10562282 -4.6833473 -0.00694859 0 0 Z " fill="#397AB8" transform="translate(289.89691162109375,205.75949096679688)"/>
<path d="M0 0 C27.39 0 54.78 0 83 0 C83.20625 13.24125 83.4125 26.4825 83.625 40.125 C83.71604004 44.29914551 83.80708008 48.47329102 83.90087891 52.77392578 C83.94604492 57.88842773 83.94604492 57.88842773 83.95443726 60.28610229 C83.969751 61.95361034 84.00483981 63.6210104 84.05575562 65.28781128 C84.46306177 79.32881007 84.46306177 79.32881007 80.81268311 83.49847412 C78.18513129 85.1692391 76.0299158 86.29233293 73 87 C71.515 86.505 71.515 86.505 70 86 C74.625 83 74.625 83 78 83 C78 82.34 78 81.68 78 81 C78.99 81 79.98 81 81 81 C81 54.6 81 28.2 81 1 C54.93 1 28.86 1 2 1 C1.34 3.97 0.68 6.94 0 10 C-0.99 10.33 -1.98 10.66 -3 11 C-3 12.32 -3 13.64 -3 15 C-3.99 15 -4.98 15 -6 15 C-6.33 16.32 -6.66 17.64 -7 19 C-7.33 18.34 -7.66 17.68 -8 17 C-6.85546875 14.609375 -6.85546875 14.609375 -5.1875 11.75 C-2.85612982 7.74070782 -1.50521838 4.51565515 0 0 Z " fill="#F2C53E" transform="translate(126,74)"/>
<path d="M0 0 C1.780283 6.1669003 2.07598407 13.23252987 -1 19 C-1.66 19 -2.32 19 -3 19 C-2.67 21.64 -2.34 24.28 -2 27 C-2.66 27 -3.32 27 -4 27 C-4.2165625 28.7015625 -4.2165625 28.7015625 -4.4375 30.4375 C-5 34 -5 34 -6 35 C-6.33 37.64 -6.66 40.28 -7 43 C49.43 42.67 105.86 42.34 164 42 C164 41.34 164 40.68 164 40 C166.97 40 169.94 40 173 40 C167.66507974 43.55661351 163.01765668 44.24966473 156.67276001 44.24050903 C155.95709535 44.24221788 155.24143069 44.24392673 154.50407922 44.24568737 C152.11801313 44.24896849 149.73223138 44.2380015 147.34619141 44.22705078 C145.63104255 44.22648637 143.91589321 44.22680381 142.20074463 44.22793579 C137.55244537 44.22850913 132.90424954 44.21675779 128.25597429 44.20278788 C123.39529477 44.19027746 118.53461282 44.18910977 113.67391968 44.18673706 C104.47302835 44.18052322 95.2721846 44.16411366 86.07131422 44.14403808 C75.59496027 44.12167613 65.11860405 44.1106849 54.64223218 44.10064721 C33.09479491 44.07974737 11.54740045 44.04457322 -10 44 C-9.52329572 41.42979291 -9.04524035 38.85984946 -8.56640625 36.29003906 C-8.36513123 35.20367661 -8.36513123 35.20367661 -8.15979004 34.09536743 C-7.25836094 29.26515248 -6.23572174 24.50752869 -5 19.75 C-4.66140734 18.43230477 -4.32286627 17.11459628 -3.984375 15.796875 C-3.49710938 13.91742188 -3.49710938 13.91742188 -3 12 C-2.41433129 9.66725175 -1.83075471 7.33397648 -1.25 5 C-0.83333333 3.33333333 -0.41666667 1.66666667 0 0 Z " fill="#E8322E" transform="translate(206,387)"/>
<path d="M0 0 C31.68 0 63.36 0 96 0 C96 0.33 96 0.66 96 1 C84.12 1 72.24 1 60 1 C60 1.66 60 2.32 60 3 C40.2 3 20.4 3 0 3 C0 2.01 0 1.02 0 0 Z " fill="#2B6389" transform="translate(56,306)"/>
<path d="M0 0 C1.56902561 3.13805122 0.56136446 6.26618588 0.0625 9.625 C-0.03740234 10.33140625 -0.13730469 11.0378125 -0.24023438 11.765625 C-0.48791959 13.51121607 -0.74323871 15.25572084 -1 17 C-1.66 17 -2.32 17 -3 17 C-3.13277344 17.98097656 -3.26554688 18.96195312 -3.40234375 19.97265625 C-3.99939428 24.15200993 -4.76971655 28.29150806 -5.5625 32.4375 C-5.77036133 33.53481445 -5.77036133 33.53481445 -5.98242188 34.65429688 C-6.3202181 36.43646318 -6.65990988 38.21827002 -7 40 C-7.66 40 -8.32 40 -9 40 C-9.22334904 35.26805461 -9.38615853 30.53920256 -9.49438477 25.80322266 C-9.53950884 24.19460603 -9.60083129 22.58635586 -9.67895508 20.97900391 C-10.3145957 7.55992408 -10.3145957 7.55992408 -6.95654297 3.57519531 C-4.67661345 2.0552423 -2.57332629 0.92643615 0 0 Z " fill="#EFBB12" transform="translate(9,252)"/>
<path d="M0 0 C0.8971875 0.680625 0.8971875 0.680625 1.8125 1.375 C5.68273399 4.25003096 9.1976188 4.09059143 13.875 3.5625 C15.421875 3.2840625 15.421875 3.2840625 17 3 C17 5.64 17 8.28 17 11 C11.89655616 13.63403553 6.49924022 13.86135144 0.96875 12.5 C-2.14738478 11.33805144 -3.92295714 10.09630357 -6 7.5 C-7 5 -7 5 -6 2 C-5.34 2.33 -4.68 2.66 -4 3 C-3.67 2.34 -3.34 1.68 -3 1 C-2.01 0.67 -1.02 0.34 0 0 Z " fill="#4E4E4E" transform="translate(338,473)"/>
<path d="M0 0 C12.85632688 0.06113589 25.7124495 0.13818756 38.56855488 0.23571491 C44.53779572 0.28049453 50.5069671 0.31973388 56.47631836 0.34643555 C62.23413893 0.37239279 67.99169329 0.41274125 73.74934959 0.46318626 C75.94900394 0.47990637 78.14870438 0.49138849 80.34841347 0.49761391 C83.42307247 0.5071991 86.49704244 0.53519136 89.5715332 0.56762695 C90.94393913 0.56547432 90.94393913 0.56547432 92.34407043 0.5632782 C93.18119568 0.57581635 94.01832092 0.58835449 94.8808136 0.60127258 C95.9717556 0.60818603 95.9717556 0.60818603 97.08473682 0.61523914 C99.51691411 1.10384386 100.42804916 2.13387716 102 4 C101.34 4.66 100.68 5.32 100 6 C99.01 5.01 99.01 5.01 98 4 C95.25226605 3.79277693 92.60315339 3.70951563 89.85351562 3.71289062 C89.01097229 3.70605759 88.16842896 3.69922455 87.300354 3.69218445 C85.46591369 3.67857124 83.63143514 3.66953419 81.79695129 3.66447449 C78.88708278 3.65619547 75.97752966 3.63569493 73.06774902 3.61193848 C66.87854622 3.56362636 60.68931141 3.53080035 54.5 3.5 C47.35420576 3.46426269 40.20856275 3.42209957 33.06291199 3.36405945 C30.2081393 3.34411256 27.35348479 3.33569246 24.49865723 3.32775879 C16.08919603 3.27767383 8.19276942 3.1433825 0 1 C0 0.67 0 0.34 0 0 Z " fill="#EE6B70" transform="translate(262,342)"/>
<path d="M0 0 C57.75 0 115.5 0 175 0 C175.99 2.475 175.99 2.475 177 5 C175.02 4.505 175.02 4.505 173 4 C173 3.01 173 2.02 173 1 C115.91 1 58.82 1 0 1 C0 0.67 0 0.34 0 0 Z " fill="#EA2F34" transform="translate(240,320)"/>
<path d="M0 0 C0.99 0.33 1.98 0.66 3 1 C2.01 2.485 2.01 2.485 1 4 C1.6460161 7.10453689 1.6460161 7.10453689 2.875 10.4375 C4.20305163 14.3029218 5 16.87963137 5 21 C1.7 21 -1.6 21 -5 21 C-7.22857143 13.57142857 -7.22857143 13.57142857 -6.125 10.8125 C-5.75375 10.214375 -5.3825 9.61625 -5 9 C-4.83249586 6.33290931 -4.83249586 6.33290931 -5 4 C-4.360625 3.71125 -3.72125 3.4225 -3.0625 3.125 C-0.84793921 2.17176549 -0.84793921 2.17176549 0 0 Z " fill="#3C3C3C" transform="translate(471,464)"/>
<path d="M0 0 C0.95708359 0.00222061 1.91416718 0.00444122 2.9002533 0.00672913 C3.98129837 0.00680466 5.06234344 0.00688019 6.17614746 0.00695801 C7.94018166 0.01469994 7.94018166 0.01469994 9.73985291 0.02259827 C10.93702438 0.02401321 12.13419586 0.02542816 13.36764526 0.02688599 C17.20918732 0.03250472 21.05067208 0.04506041 24.89219666 0.05775452 C27.48920102 0.0627671 30.0862063 0.06733043 32.68321228 0.07142639 C39.06539344 0.08248024 45.44754096 0.0992366 51.82969666 0.12025452 C51.82969666 0.78025452 51.82969666 1.44025452 51.82969666 2.12025452 C34.33969666 2.12025452 16.84969666 2.12025452 -1.17030334 2.12025452 C-1.50030334 4.43025452 -1.83030334 6.74025452 -2.17030334 9.12025452 C-2.83030334 10.11025452 -3.49030334 11.10025452 -4.17030334 12.12025452 C-4.02992814 10.30732363 -3.88285445 8.49491022 -3.73280334 6.68275452 C-3.65159241 5.67341858 -3.57038147 4.66408264 -3.48670959 3.62416077 C-3.05009841 0.16900315 -3.05009841 0.16900315 0 0 Z " fill="#D93A44" transform="translate(448.17030334472656,318.87974548339844)"/>
<path d="M0 0 C0.33 0 0.66 0 1 0 C1.1047399 5.7606946 0.72003756 11.28729906 0 17 C6.6286932 17.76168265 13.16899789 18.1692051 19.83984375 18.203125 C20.7286171 18.20882507 21.61739044 18.21452515 22.53309631 18.22039795 C24.39094887 18.22976045 26.24881737 18.2363466 28.10668945 18.24023438 C30.95487398 18.25005994 33.8023711 18.28121114 36.65039062 18.3125 C38.46353742 18.31902035 40.27668932 18.3242746 42.08984375 18.328125 C43.36479958 18.3466452 43.36479958 18.3466452 44.66551208 18.36553955 C49.05616027 18.50569503 49.05616027 18.50569503 52.74659729 16.47772217 C53.16022018 15.99007385 53.57384308 15.50242554 54 15 C53.505 17.475 53.505 17.475 53 20 C34.19 20 15.38 20 -4 20 C-4 14.75607138 -3.48045115 11.52899445 -2 6.625 C-1.62875 5.37976563 -1.2575 4.13453125 -0.875 2.8515625 C-0.58625 1.91054688 -0.2975 0.96953125 0 0 Z " fill="#E84544" transform="translate(423,411)"/>
<path d="M0 0 C1.23556641 0.01740234 1.23556641 0.01740234 2.49609375 0.03515625 C3.32238281 0.04417969 4.14867187 0.05320312 5 0.0625 C5.63808594 0.07410156 6.27617187 0.08570313 6.93359375 0.09765625 C6.60359375 2.40765625 6.27359375 4.71765625 5.93359375 7.09765625 C1.31359375 7.09765625 -3.30640625 7.09765625 -8.06640625 7.09765625 C-8.39640625 6.43765625 -8.72640625 5.77765625 -9.06640625 5.09765625 C-10.38640625 5.42765625 -11.70640625 5.75765625 -13.06640625 6.09765625 C-13.06640625 4.44765625 -13.06640625 2.79765625 -13.06640625 1.09765625 C-12.35613281 1.10925781 -11.64585937 1.12085938 -10.9140625 1.1328125 C-9.99496094 1.14183594 -9.07585937 1.15085937 -8.12890625 1.16015625 C-6.75412109 1.17755859 -6.75412109 1.17755859 -5.3515625 1.1953125 C-2.70552939 1.08223416 -2.57160245 0.12153131 0 0 Z " fill="#3B3B3B" transform="translate(379.06640625,450.90234375)"/>
<path d="M0 0 C0.33 1.32 0.66 2.64 1 4 C18.16 4 35.32 4 53 4 C53 4.66 53 5.32 53 6 C35.18 6 17.36 6 -1 6 C-0.67 4.02 -0.34 2.04 0 0 Z " fill="#5D518A" transform="translate(447,313)"/>
<path d="M0 0 C0.33 1.32 0.66 2.64 1 4 C0.01 4.33 -0.98 4.66 -2 5 C-1.938125 5.721875 -1.87625 6.44375 -1.8125 7.1875 C-2.03912626 10.5868939 -3.18992568 12.14565204 -5 15 C-5.33 16.0725 -5.66 17.145 -6 18.25 C-6.33 19.1575 -6.66 20.065 -7 21 C-7.99 21.33 -8.98 21.66 -10 22 C-10.33 25.96 -10.66 29.92 -11 34 C-8.36 34.33 -5.72 34.66 -3 35 C-3 36.65 -3 38.3 -3 40 C-7.47014404 37.49671934 -11.76946537 34.8891456 -16 32 C-14.58344173 27.26361031 -12.56539838 23.0614336 -10.1875 18.75 C-9.47027227 17.4302749 -8.75412873 16.10996001 -8.0390625 14.7890625 C-7.69133789 14.14743164 -7.34361328 13.50580078 -6.98535156 12.84472656 C-5.21121347 9.52327279 -3.55811897 6.14311898 -1.91015625 2.7578125 C-1 1 -1 1 0 0 Z " fill="#F5CC45" transform="translate(105,117)"/>
<path d="M0 0 C20.46 0 40.92 0 62 0 C62 7.875 62 7.875 60.46875 10.74609375 C59.99501953 11.6597168 59.99501953 11.6597168 59.51171875 12.59179688 C59.17785156 13.20087891 58.84398437 13.80996094 58.5 14.4375 C58.16613281 15.07365234 57.83226562 15.70980469 57.48828125 16.36523438 C56.67159878 17.91693107 55.8375666 19.45947571 55 21 C54.67 21 54.34 21 54 21 C53.8125 17.625 53.8125 17.625 54 14 C54.99 13.34 55.98 12.68 57 12 C57.72965366 9.43717258 57.72965366 9.43717258 58 7 C58.66 7 59.32 7 60 7 C60 5.35 60 3.7 60 2 C30.3 1.505 30.3 1.505 0 1 C0 0.67 0 0.34 0 0 Z " fill="#C53C4D" transform="translate(143,319)"/>
<path d="M0 0 C3.22911295 1.45310083 5.15231557 3.50900878 7.5 6.125 C5.85 6.125 4.2 6.125 2.5 6.125 C2.17 5.465 1.84 4.805 1.5 4.125 C0.84 4.125 0.18 4.125 -0.5 4.125 C-0.62375 4.846875 -0.7475 5.56875 -0.875 6.3125 C-1.50608441 9.15237984 -2.14025137 11.54863418 -3.5 14.125 C-5.625 14.9375 -5.625 14.9375 -7.5 15.125 C-7.438125 16.053125 -7.37625 16.98125 -7.3125 17.9375 C-7.5 21.125 -7.5 21.125 -9 23 C-9.7425 23.556875 -9.7425 23.556875 -10.5 24.125 C-10.5 22.805 -10.5 21.485 -10.5 20.125 C-9.84 20.125 -9.18 20.125 -8.5 20.125 C-8.48582031 19.10019531 -8.47164062 18.07539063 -8.45703125 17.01953125 C-8.41010984 15.65881029 -8.36186256 14.29813459 -8.3125 12.9375 C-8.30669922 12.26396484 -8.30089844 11.59042969 -8.29492188 10.89648438 C-8.12303902 6.98137488 -7.58485152 5.23061454 -5.10546875 2.14453125 C-2.5 0.125 -2.5 0.125 0 0 Z " fill="#1D6093" transform="translate(16.5,248.875)"/>
<path d="M0 0 C0 0.33 0 0.66 0 1 C-4.95 0.67 -9.9 0.34 -15 0 C-15 -0.66 -15 -1.32 -15 -2 C-19.10464976 -1.88856155 -23.20850725 -1.75831866 -27.3125 -1.625 C-28.46041016 -1.5940625 -29.60832031 -1.563125 -30.79101562 -1.53125 C-37.26029467 -1.31133117 -43.36321165 -0.74091477 -49.68432617 0.68212891 C-52.11510742 1.01580072 -53.6872509 0.75925096 -56 0 C-37.53114092 -6.13058161 -18.62301746 -5.01388932 0 0 Z " fill="#F5CB4A" transform="translate(58,157)"/>
<path d="M0 0 C0.66 0 1.32 0 2 0 C2.92554436 11.08596471 0.36157433 20.7875838 -2.3671875 31.43798828 C-3.80122527 37.24384951 -4.88999436 43.12509211 -6 49 C-6.33 49 -6.66 49 -7 49 C-7.33 46.69 -7.66 44.38 -8 42 C-7.34 42 -6.68 42 -6 42 C-6.33 39.36 -6.66 36.72 -7 34 C-7.66 34 -8.32 34 -9 34 C-8.67 32.68 -8.34 31.36 -8 30 C-7.34 30.33 -6.68 30.66 -6 31 C0.28105369 22.14942434 -0.45420004 10.41074292 0 0 Z " fill="#E45153" transform="translate(417,332)"/>
<path d="M0 0 C1.780283 6.1669003 2.07598407 13.23252987 -1 19 C-1.66 19 -2.32 19 -3 19 C-2.67 21.64 -2.34 24.28 -2 27 C-2.66 27 -3.32 27 -4 27 C-4.2165625 28.7015625 -4.2165625 28.7015625 -4.4375 30.4375 C-5 34 -5 34 -6 35 C-6.23075082 36.34747084 -6.41153063 37.70377565 -6.5625 39.0625 C-6.706875 40.361875 -6.85125 41.66125 -7 43 C-6.01 43.33 -5.02 43.66 -4 44 C-5.98 44 -7.96 44 -10 44 C-8.10422165 33.1998082 -5.75135733 22.61237827 -3 12 C-2.41433129 9.66725175 -1.83075471 7.33397648 -1.25 5 C-0.83333333 3.33333333 -0.41666667 1.66666667 0 0 Z " fill="#E75757" transform="translate(206,387)"/>
<path d="M0 0 C19.14 0 38.28 0 58 0 C59.24363331 3.73089994 58.71642884 6.75924977 58.1875 10.5625 C58.10435547 11.24763672 58.02121094 11.93277344 57.93554688 12.63867188 C57.24809559 17.75190441 57.24809559 17.75190441 55 20 C55 14.06 55 8.12 55 2 C36.85 1.67 18.7 1.34 0 1 C0 0.67 0 0.34 0 0 Z " fill="#D8BC43" transform="translate(70,258)"/>
<path d="M0 0 C2.07482597 1.67306922 2.92195135 2.59499081 3.43359375 5.25 C3.45219015 18.34186295 0.19407478 31.64018872 -4 44 C-4.33 44 -4.66 44 -5 44 C-5.33 41.69 -5.66 39.38 -6 37 C-5.01 36.505 -5.01 36.505 -4 36 C-4.061875 34.1128125 -4.061875 34.1128125 -4.125 32.1875 C-4.2390374 28.70935927 -4.05925681 28.08888522 -2 25 C0.5253786 16.72237014 0.18913014 8.56339233 0 0 Z " fill="#5189BD" transform="translate(218,244)"/>
<path d="M0 0 C1.65800798 4.42135462 0.66509036 6.67927714 0 12 C27.225 11.505 27.225 11.505 55 11 C55 11.66 55 12.32 55 13 C35.86 13 16.72 13 -3 13 C-1 2 -1 2 0 0 Z " fill="#DBBD3C" transform="translate(59,293)"/>
<path d="M0 0 C0.33 0 0.66 0 1 0 C1 2.31 1 4.62 1 7 C3.31 7.33 5.62 7.66 8 8 C8.04254356 9.99954746 8.04080783 12.00041636 8 14 C7 15 7 15 4.93359375 15.09765625 C4.10988281 15.08605469 3.28617187 15.07445312 2.4375 15.0625 C1.61121094 15.05347656 0.78492188 15.04445313 -0.06640625 15.03515625 C-0.70449219 15.02355469 -1.34257812 15.01195312 -2 15 C-1.855625 14.01 -1.71125 13.02 -1.5625 12 C-0.99074821 8.00590535 -0.49180166 4.00467063 0 0 Z " fill="#434343" transform="translate(451,470)"/>
<path d="M0 0 C0.33 0 0.66 0 1 0 C1.2412573 4.42305048 1.20457686 7.89666916 -0.34375 12.0625 C-2.23014984 17.47174179 -3.46288312 22.97217945 -4.6875 28.5625 C-4.91244141 29.57119141 -5.13738281 30.57988281 -5.36914062 31.61914062 C-5.91696608 34.07852724 -6.46049682 36.53877691 -7 39 C-7.94988393 35.56527478 -7.97694996 32.87480437 -7.625 29.3125 C-7.53476562 28.33925781 -7.44453125 27.36601562 -7.3515625 26.36328125 C-7 24 -7 24 -6 23 C-5.95653201 21.00047242 -5.960008 18.99960012 -6 17 C-6 16.01 -6 15.02 -6 14 C-5.34 14 -4.68 14 -4 14 C-1.95698846 9.47618873 -0.99043705 4.83628305 0 0 Z " fill="#E74E4D" transform="translate(490,364)"/>
<path d="M0 0 C0.66 0 1.32 0 2 0 C0.95689672 7.65980319 -0.65928323 15.12234864 -2.5 22.625 C-2.71358154 23.51413086 -2.92716309 24.40326172 -3.1472168 25.31933594 C-3.35644775 26.1549707 -3.56567871 26.99060547 -3.78125 27.8515625 C-3.96751953 28.60260254 -4.15378906 29.35364258 -4.34570312 30.12744141 C-5 32 -5 32 -7 34 C-8.36040824 26.65083812 -8.00793067 23.24765663 -4 17 C-3.41299015 14.63332538 -3.19928604 12.44125393 -3 10 C-2.34 10 -1.68 10 -1 10 C-0.67 6.7 -0.34 3.4 0 0 Z " fill="#EC4C4C" transform="translate(498,330)"/>
<path d="M0 0 C2.97 0 5.94 0 9 0 C2.36709898 4.42193402 -3.80781105 4.27025699 -11.5234375 4.1953125 C-12.62475006 4.1924826 -13.72606262 4.18965271 -14.86074829 4.18673706 C-18.36561108 4.17557478 -21.87021492 4.15047711 -25.375 4.125 C-27.75650672 4.11496511 -30.13801745 4.10584015 -32.51953125 4.09765625 C-38.34644197 4.07564837 -44.17320248 4.04220999 -50 4 C-50 3.67 -50 3.34 -50 3 C-33.5 2.67 -17 2.34 0 2 C0 1.34 0 0.68 0 0 Z " fill="#E63330" transform="translate(370,427)"/>
<path d="M0 0 C0.33 0 0.66 0 1 0 C1.40667211 5.12250452 0.10616183 8.62426047 -2.25 13.0625 C-2.55035156 13.66126953 -2.85070312 14.26003906 -3.16015625 14.87695312 C-5.07657961 18.59970744 -7.1706823 21.90762591 -10 25 C-10.66 25 -11.32 25 -12 25 C-12.33 25.66 -12.66 26.32 -13 27 C-13 24.69 -13 22.38 -13 20 C-11.68 20.33 -10.36 20.66 -9 21 C-9 20.34 -9 19.68 -9 19 C-8.34 19 -7.68 19 -7 19 C-7.061875 18.05125 -7.12375 17.1025 -7.1875 16.125 C-7.125625 15.09375 -7.06375 14.0625 -7 13 C-6.01 12.34 -5.02 11.68 -4 11 C-4.33 8.03 -4.66 5.06 -5 2 C-3.68 2.66 -2.36 3.32 -1 4 C-0.67 2.68 -0.34 1.36 0 0 Z " fill="#EC5F5F" transform="translate(406,391)"/>
<path d="M0 0 C1.44715727 3.87186448 0.5441918 6.8232328 -0.4375 10.75 C-0.72496094 11.92046875 -1.01242188 13.0909375 -1.30859375 14.296875 C-1.53675781 15.18890625 -1.76492187 16.0809375 -2 17 C1.3 17 4.6 17 8 17 C8 17.66 8 18.32 8 19 C10.97 19.33 13.94 19.66 17 20 C13.5444682 20.86388295 12.02182865 21.06693634 8.671875 20.66015625 C7.87265625 20.56669922 7.0734375 20.47324219 6.25 20.37695312 C5.425 20.27318359 4.6 20.16941406 3.75 20.0625 C2.90953125 19.96259766 2.0690625 19.86269531 1.203125 19.75976562 C-0.86536277 19.51295742 -2.93279572 19.25733716 -5 19 C-3.9559635 12.31816637 -2.5957524 6.2534035 0 0 Z " fill="#F4CB4B" transform="translate(38,114)"/>
<path d="M0 0 C0.33 0 0.66 0 1 0 C1.21192221 5.19209404 0.5912689 9.126739 -1 14 C-4.3 14 -7.6 14 -11 14 C-8.75174456 9.50348911 -6.81688873 8.25066013 -2.77734375 5.5625 C-0.72785789 3.76075419 -0.37249443 2.65903716 0 0 Z " fill="#474747" transform="translate(438,471)"/>
<path d="M0 0 C0.66 0.33 1.32 0.66 2 1 C1.21654285 2.17219543 0.42297164 3.33763668 -0.375 4.5 C-0.81585938 5.1496875 -1.25671875 5.799375 -1.7109375 6.46875 C-2.13632812 6.9740625 -2.56171875 7.479375 -3 8 C-3.66 8 -4.32 8 -5 8 C-5.33 8.99 -5.66 9.98 -6 11 C-6.66 11 -7.32 11 -8 11 C-7.71640113 12.4391134 -7.42278601 13.87625518 -7.125 15.3125 C-6.96257813 16.11300781 -6.80015625 16.91351563 -6.6328125 17.73828125 C-6.05521001 20.25301118 -6.05521001 20.25301118 -4 23 C-4.375 26.6875 -4.375 26.6875 -5 30 C-5.33 30 -5.66 30 -6 30 C-9.89723926 13.48312883 -9.89723926 13.48312883 -9 8 C-6.1875 5.1875 -6.1875 5.1875 -3 3 C-1.98319689 2.01709032 -0.97261781 1.02665213 0 0 Z " fill="#3B78B4" transform="translate(37,230)"/>
<path d="M0 0 C1.65 0 3.3 0 5 0 C4.67 0.66 4.34 1.32 4 2 C3.01 2 2.02 2 1 2 C1 2.66 1 3.32 1 4 C-1.55439402 5.37174861 -4.11664431 6.72225408 -6.6875 8.0625 C-7.40873047 8.45244141 -8.12996094 8.84238281 -8.87304688 9.24414062 C-12.05016504 10.88347557 -14.25940784 12 -17.875 12 C-20.57059497 10.73148472 -21.15056851 9.64867347 -22.3125 6.9375 C-22.63863281 6.20402344 -22.96476563 5.47054687 -23.30078125 4.71484375 C-23.53152344 4.14894531 -23.76226562 3.58304688 -24 3 C-22.046875 3.8359375 -22.046875 3.8359375 -20 5 C-19.25 7.625 -19.25 7.625 -19 10 C-17.68 10 -16.36 10 -15 10 C-15 9.34 -15 8.68 -15 8 C-12.35261084 6.5393715 -11.10551666 6 -8 6 C-8 5.34 -8 4.68 -8 4 C-6.35 4 -4.7 4 -3 4 C-3 3.34 -3 2.68 -3 2 C-2.01 2 -1.02 2 0 2 C0 1.34 0 0.68 0 0 Z " fill="#F5CC49" transform="translate(152,181)"/>
<path d="M0 0 C1.65 0.33 3.3 0.66 5 1 C5.66 4.63 6.32 8.26 7 12 C7.91523437 11.97679687 8.83046875 11.95359375 9.7734375 11.9296875 C10.96195313 11.91164062 12.15046875 11.89359375 13.375 11.875 C14.55835937 11.85179687 15.74171875 11.82859375 16.9609375 11.8046875 C20 12 20 12 22 14 C19.89590361 14.02701408 17.79170822 14.04640223 15.6875 14.0625 C14.51574219 14.07410156 13.34398437 14.08570313 12.13671875 14.09765625 C9 14 9 14 6 13 C4.83203125 10.71484375 4.83203125 10.71484375 3.8125 7.9375 C3.46832031 7.01839844 3.12414062 6.09929687 2.76953125 5.15234375 C2.51558594 4.44207031 2.26164062 3.73179687 2 3 C1.01 5.31 0.02 7.62 -1 10 C-1.66 8.68 -2.32 7.36 -3 6 C-2.34 6 -1.68 6 -1 6 C-0.67 4.02 -0.34 2.04 0 0 Z " fill="#EFC94B" transform="translate(84,192)"/>
<path d="M0 0 C0.99 0 1.98 0 3 0 C3 1.65 3 3.3 3 5 C-5.25 5 -13.5 5 -22 5 C-22 4.34 -22 3.68 -22 3 C-21.40461426 2.98018066 -20.80922852 2.96036133 -20.19580078 2.93994141 C-17.50507847 2.84483874 -14.81514852 2.73510158 -12.125 2.625 C-11.18785156 2.5940625 -10.25070312 2.563125 -9.28515625 2.53125 C-7.94130859 2.47324219 -7.94130859 2.47324219 -6.5703125 2.4140625 C-5.74289551 2.3826416 -4.91547852 2.3512207 -4.06298828 2.31884766 C-1.78013915 2.17400863 -1.78013915 2.17400863 0 0 Z " fill="#F12C2D" transform="translate(22,426)"/>
<path d="M0 0 C0.89954484 2.9472255 1.02657711 5.04984993 0.4765625 8.07421875 C0.3425 8.82380859 0.2084375 9.57339844 0.0703125 10.34570312 C-0.07664062 11.11849609 -0.22359375 11.89128906 -0.375 12.6875 C-0.51421875 13.47189453 -0.6534375 14.25628906 -0.796875 15.06445312 C-1.85854001 20.85854001 -1.85854001 20.85854001 -3 22 C-3.12375 23.03125 -3.2475 24.0625 -3.375 25.125 C-4.04473892 29.2773813 -5.22550585 32.21955594 -7 36 C-7.33 36 -7.66 36 -8 36 C-7.24628205 29.9025065 -5.94183771 23.9838324 -4.5625 18 C-4.34529297 17.0409375 -4.12808594 16.081875 -3.90429688 15.09375 C-2.74245644 10.01375098 -1.49110393 4.99346431 0 0 Z " fill="#E65E5E" transform="translate(435,363)"/>
<path d="M0 0 C0.66 0 1.32 0 2 0 C1.40390686 6.73516737 0.14905977 13.02788945 -1.5625 19.5625 C-1.79646484 20.47580078 -2.03042969 21.38910156 -2.27148438 22.33007812 C-2.84223625 24.55484564 -3.41847478 26.77802897 -4 29 C-4.66 29 -5.32 29 -6 29 C-5.7159949 26.93643105 -5.42246648 24.8741715 -5.125 22.8125 C-4.96257812 21.66394531 -4.80015625 20.51539063 -4.6328125 19.33203125 C-4.05465338 16.28777364 -3.16889127 13.84917247 -2 11 C-1.57851125 9.07207923 -1.20323562 7.1334683 -0.875 5.1875 C-0.70742187 4.21167969 -0.53984375 3.23585938 -0.3671875 2.23046875 C-0.24601563 1.49441406 -0.12484375 0.75835937 0 0 Z " fill="#4179B3" transform="translate(211,288)"/>
<path d="M0 0 C1.56902561 3.13805122 0.56136446 6.26618588 0.0625 9.625 C-0.08735352 10.68460937 -0.08735352 10.68460937 -0.24023438 11.765625 C-0.48791959 13.51121607 -0.74323871 15.25572084 -1 17 C-1.66 17 -2.32 17 -3 17 C-3.33 19.31 -3.66 21.62 -4 24 C-5.09506492 20.71480525 -5.09960608 18.26336585 -5.0625 14.8125 C-5.05347656 13.72582031 -5.04445313 12.63914062 -5.03515625 11.51953125 C-5.02355469 10.68808594 -5.01195312 9.85664063 -5 9 C-4.34 9 -3.68 9 -3 9 C-2.67 7.68 -2.34 6.36 -2 5 C-3.32 4.67 -4.64 4.34 -6 4 C-4.02 2.68 -2.04 1.36 0 0 Z " fill="#DBBD3E" transform="translate(9,252)"/>
<path d="M0 0 C0.33 0 0.66 0 1 0 C1.33 2.97 1.66 5.94 2 9 C17.84 9.495 17.84 9.495 34 10 C34 10.33 34 10.66 34 11 C22.12 11 10.24 11 -2 11 C-0.875 3.125 -0.875 3.125 0 0 Z " fill="#4C7FAE" transform="translate(466,236)"/>
<path d="M0 0 C1.14849559 3.96753021 0.87071371 6.93666935 0 11 C-0.495 11.61875 -0.99 12.2375 -1.5 12.875 C-3.57083735 15.80868624 -3.4081597 18.44747614 -3.49609375 21.9765625 C-4 24 -4 24 -6.03515625 25.2734375 C-6.68355469 25.51320313 -7.33195312 25.75296875 -8 26 C-6.17467932 16.93275664 -3.53780174 8.54386113 0 0 Z " fill="#F8CB4A" transform="translate(47,87)"/>
<path d="M0 0 C-5.02521754 2.92424193 -10.11365033 5.64816606 -15.3125 8.25 C-16.38467773 8.79527344 -16.38467773 8.79527344 -17.47851562 9.3515625 C-22.76045583 12 -22.76045583 12 -25 12 C-25 11.01 -25 10.02 -25 9 C-21.535 8.505 -21.535 8.505 -18 8 C-18 7.01 -18 6.02 -18 5 C-16.02 5 -14.04 5 -12 5 C-12 4.34 -12 3.68 -12 3 C-10.68 3 -9.36 3 -8 3 C-8 2.34 -8 1.68 -8 1 C-2.25 -1.125 -2.25 -1.125 0 0 Z " fill="#F7CE55" transform="translate(196,162)"/>
<path d="M0 0 C0.66 0.33 1.32 0.66 2 1 C-0.37028851 10.09574126 -3.15698081 19.04392769 -6 28 C-6.33 28 -6.66 28 -7 28 C-6.29843593 20.84404654 -4.69214979 13.98144819 -3 7 C-2.34 7 -1.68 7 -1 7 C-0.67 4.69 -0.34 2.38 0 0 Z " fill="#F6D052" transform="translate(72,98)"/>
<path d="M0 0 C1.01058283 3.23537338 0.99200982 5.82985606 0.625 9.1875 C0.53476563 10.06792969 0.44453125 10.94835937 0.3515625 11.85546875 C0 14 0 14 -1 15 C-1.23427778 17.01594582 -1.41336124 19.038474 -1.5625 21.0625 C-1.64628906 22.16722656 -1.73007812 23.27195312 -1.81640625 24.41015625 C-1.87699219 25.26480469 -1.93757812 26.11945313 -2 27 C-1.34 27.33 -0.68 27.66 0 28 C-0.66 28.66 -1.32 29.32 -2 30 C-5.42857143 22.71428571 -5.42857143 22.71428571 -5 18 C-4.34 18 -3.68 18 -3 18 C-2.80083984 16.30230469 -2.80083984 16.30230469 -2.59765625 14.5703125 C-2.4194658 13.08851821 -2.24106971 11.60674864 -2.0625 10.125 C-1.97548828 9.37863281 -1.88847656 8.63226563 -1.79882812 7.86328125 C-1.11328125 2.2265625 -1.11328125 2.2265625 0 0 Z " fill="#33636F" transform="translate(5,274)"/>
<path d="M0 0 C1.13643966 3.40931897 0.86747764 4.00335456 -0.4375 7.1875 C-0.72496094 7.90292969 -1.01242188 8.61835938 -1.30859375 9.35546875 C-1.53675781 9.89816406 -1.76492187 10.44085938 -2 11 C-2.66 11 -3.32 11 -4 11 C-3.71125 11.886875 -3.4225 12.77375 -3.125 13.6875 C-3 17 -3 17 -4.26953125 18.51171875 C-5.78648506 19.75157093 -7.39036183 20.88310821 -9 22 C-7.53364079 13.66490555 -4.4673783 7.14780528 0 0 Z " fill="#417CB9" transform="translate(249,227)"/>
<path d="M0 0 C0.99 0.33 1.98 0.66 3 1 C3 1.66 3 2.32 3 3 C3.66 3 4.32 3 5 3 C5 3.66 5 4.32 5 5 C6.98 4.67 8.96 4.34 11 4 C11 3.34 11 2.68 11 2 C11.99 2.33 12.98 2.66 14 3 C12.02 3.99 12.02 3.99 10 5 C10 5.66 10 6.32 10 7 C8.04072937 8.7143618 6.04119788 10.38405168 4 12 C3.3291288 10.3767313 2.66342971 8.75132422 2 7.125 C1.62875 6.22007812 1.2575 5.31515625 0.875 4.3828125 C0 2 0 2 0 0 Z " fill="#DFBB2F" transform="translate(18,213)"/>
<path d="M0 0 C3.3 0 6.6 0 10 0 C10 0.33 10 0.66 10 1 C7.36 1 4.72 1 2 1 C1.89042969 1.63808594 1.78085938 2.27617188 1.66796875 2.93359375 C1.50941406 3.75988281 1.35085937 4.58617188 1.1875 5.4375 C1.03667969 6.26121094 0.88585937 7.08492188 0.73046875 7.93359375 C0.48941406 8.61550781 0.24835938 9.29742187 0 10 C-0.99 10.33 -1.98 10.66 -3 11 C-3 12.32 -3 13.64 -3 15 C-3.99 15 -4.98 15 -6 15 C-6.33 16.32 -6.66 17.64 -7 19 C-7.33 18.34 -7.66 17.68 -8 17 C-6.85546875 14.609375 -6.85546875 14.609375 -5.1875 11.75 C-3.00432517 7.89525279 -1.16304612 4.30327063 0 0 Z " fill="#F6C94A" transform="translate(126,74)"/>
<path d="M0 0 C2.31 0 4.62 0 7 0 C8 3 8 3 7 6 C4.36 6 1.72 6 -1 6 C-1 3 -1 3 0 0 Z " fill="#343434" transform="translate(374,465)"/>
<path d="M0 0 C0.33 0 0.66 0 1 0 C1 2.64 1 5.28 1 8 C0.34 8 -0.32 8 -1 8 C-0.979375 8.94875 -0.95875 9.8975 -0.9375 10.875 C-1 14 -1 14 -2 16 C-2.52151961 19.37015615 -2.96158645 22.7472977 -3.40234375 26.12890625 C-3.59957031 27.07636719 -3.79679687 28.02382813 -4 29 C-4.66 29.33 -5.32 29.66 -6 30 C-4.97166672 19.58136023 -3.21914937 10.00124075 0 0 Z " fill="#CEB53E" transform="translate(66,262)"/>
<path d="M0 0 C0.33 0 0.66 0 1 0 C0.61422945 7.74201581 -0.42388772 14.67671225 -3 22 C-3.66 22 -4.32 22 -5 22 C-5 20.68 -5 19.36 -5 18 C-4.34 18 -3.68 18 -3 18 C-3.03480469 17.28714844 -3.06960938 16.57429688 -3.10546875 15.83984375 C-3.27931846 9.68887544 -2.90464152 5.44620285 0 0 Z " fill="#4881B7" transform="translate(290,261)"/>
<path d="M0 0 C2.475 0.495 2.475 0.495 5 1 C6.1875 4.25 6.1875 4.25 7 8 C5.6875 10 5.6875 10 4 12 C3.27518916 15.65274469 3.27518916 15.65274469 3 19 C2.01 19.33 1.02 19.66 0 20 C0.45228007 16.83403953 1.01203904 13.96529922 2.0625 10.9375 C2.99409624 8.01849846 3.40936999 6.02933792 3 3 C1.60414215 1.18523997 1.60414215 1.18523997 0 0 Z " fill="#F8C73F" transform="translate(50,60)"/>
<path d="M0 0 C0.33 0 0.66 0 1 0 C1 2.31 1 4.62 1 7 C1.66 7.33 2.32 7.66 3 8 C2.67 8.99 2.34 9.98 2 11 C1.01 11.33 0.02 11.66 -1 12 C-1.33 12.99 -1.66 13.98 -2 15 C-2.66 15 -3.32 15 -4 15 C-3.85904936 13.3745692 -3.71207913 11.74965949 -3.5625 10.125 C-3.48128906 9.22007812 -3.40007812 8.31515625 -3.31640625 7.3828125 C-3 5 -3 5 -2 3 C-1.34 3 -0.68 3 0 3 C0 2.01 0 1.02 0 0 Z " fill="#F04040" transform="translate(428,396)"/>
<path d="M0 0 C1.06723961 3.46222615 1.10173486 6.64039266 1.0625 10.25 C1.05347656 11.32765625 1.04445313 12.4053125 1.03515625 13.515625 C1.02355469 14.33546875 1.01195313 15.1553125 1 16 C-1.31 15.67 -3.62 15.34 -6 15 C-6.33 14.01 -6.66 13.02 -7 12 C-6.195625 12.165 -5.39125 12.33 -4.5625 12.5 C-2.2715557 13.03191839 -2.2715557 13.03191839 -1 13 C-1.26876953 11.96939453 -1.26876953 11.96939453 -1.54296875 10.91796875 C-1.75566406 10.01691406 -1.96835938 9.11585938 -2.1875 8.1875 C-2.40792969 7.29417969 -2.62835938 6.40085938 -2.85546875 5.48046875 C-3 3 -3 3 -1.55078125 1.17578125 C-1.03902344 0.78777344 -0.52726562 0.39976562 0 0 Z " fill="#538EC3" transform="translate(96,211)"/>
<path d="M0 0 C2 3 2 3 1.6796875 5.015625 C-0.12311011 10.02145137 -2.20408903 14.46869601 -5 19 C-5.33 19 -5.66 19 -6 19 C-6.1875 15.625 -6.1875 15.625 -6 12 C-5.01 11.34 -4.02 10.68 -3 10 C-2.27034634 7.43717258 -2.27034634 7.43717258 -2 5 C-1.34 5 -0.68 5 0 5 C0 3.35 0 1.7 0 0 Z " fill="#EB5858" transform="translate(203,321)"/>
<path d="M0 0 C0.33 0 0.66 0 1 0 C1 2.97 1 5.94 1 9 C0.01 9.33 -0.98 9.66 -2 10 C-1.95875 11.03125 -1.9175 12.0625 -1.875 13.125 C-1.99575149 16.86829627 -2.64872018 19.53734547 -4 23 C-4.33 23 -4.66 23 -5 23 C-4.44636539 14.97229811 -2.34312056 7.66145933 0 0 Z " fill="#4580BA" transform="translate(456,279)"/>
<path d="M0 0 C1.4540625 0.0309375 1.4540625 0.0309375 2.9375 0.0625 C2.58700425 3.30458567 2.37528819 4.67777704 -0.125 6.875 C-0.764375 7.266875 -1.40375 7.65875 -2.0625 8.0625 C-2.7225 7.7325 -3.3825 7.4025 -4.0625 7.0625 C-4.10504356 5.06295254 -4.10330783 3.06208364 -4.0625 1.0625 C-3.0625 0.0625 -3.0625 0.0625 0 0 Z " fill="#FBBE0D" transform="translate(4.0625,256.9375)"/>
<path d="M0 0 C0.66 0.33 1.32 0.66 2 1 C1.34 2.98 0.68 4.96 0 7 C-0.99 6.67 -1.98 6.34 -3 6 C-3.33 6.99 -3.66 7.98 -4 9 C-3.34 9.33 -2.68 9.66 -2 10 C-4.31 10 -6.62 10 -9 10 C-7.625 7.5 -7.625 7.5 -6 5 C-5.34 5 -4.68 5 -4 5 C-4 4.34 -4 3.68 -4 3 C-2 1.375 -2 1.375 0 0 Z " fill="#346A88" transform="translate(32,215)"/>
<path d="M0 0 C0 0.66 0 1.32 0 2 C-1.98 2.66 -3.96 3.32 -6 4 C-6 4.66 -6 5.32 -6 6 C-7.59915881 6.69906942 -9.20455045 7.38389468 -10.8125 8.0625 C-11.70582031 8.44535156 -12.59914062 8.82820312 -13.51953125 9.22265625 C-16 10 -16 10 -19 9 C-16.2118978 7.4933028 -13.41896042 5.99580196 -10.625 4.5 C-9.8309375 4.07074219 -9.036875 3.64148438 -8.21875 3.19921875 C-7.45820313 2.79316406 -6.69765625 2.38710937 -5.9140625 1.96875 C-4.8614624 1.40317383 -4.8614624 1.40317383 -3.78759766 0.82617188 C-2 0 -2 0 0 0 Z " fill="#F4CD47" transform="translate(146,155)"/>
<path d="M0 0 C0 4.24645065 -1.81750806 6.38524772 -4 10 C-5.32 10 -6.64 10 -8 10 C-8 10.66 -8 11.32 -8 12 C-9.32 12.33 -10.64 12.66 -12 13 C-12 12.34 -12 11.68 -12 11 C-11.34 11 -10.68 11 -10 11 C-10 10.34 -10 9.68 -10 9 C-8.125 6.875 -8.125 6.875 -6 5 C-5.34 5 -4.68 5 -4 5 C-4 4.34 -4 3.68 -4 3 C-2 1.375 -2 1.375 0 0 Z " fill="#F7D056" transform="translate(15,13)"/>
<path d="M0 0 C0.33 0 0.66 0 1 0 C-0.19528178 14.50065531 -0.19528178 14.50065531 -2 21 C-2.66 21.33 -3.32 21.66 -4 22 C-3.61422945 14.25798419 -2.57611228 7.32328775 0 0 Z " fill="#4A7FBB" transform="translate(234,272)"/>
<path d="M0 0 C1.98 0 3.96 0 6 0 C2.38216587 4.44006916 -2.71836201 6.98488028 -8 9 C-8.66 8.67 -9.32 8.34 -10 8 C-9.67 7.34 -9.34 6.68 -9 6 C-8.38125 5.855625 -7.7625 5.71125 -7.125 5.5625 C-4.63289608 4.90282543 -3.6670554 3.91711371 -2 2 C-1.01 2.33 -0.02 2.66 1 3 C0.67 2.01 0.34 1.02 0 0 Z " fill="#EA5753" transform="translate(184,347)"/>
<path d="M0 0 C2.50356732 3.75535098 1.9608592 4.86889414 1.125 9.1875 C0.92132813 10.27417969 0.71765625 11.36085937 0.5078125 12.48046875 C0.34023438 13.31191406 0.17265625 14.14335937 0 15 C-0.66 15 -1.32 15 -2 15 C-2 16.65 -2 18.3 -2 20 C-2.66 20 -3.32 20 -4 20 C-2.9413873 13.24289769 -1.77874156 6.60675438 0 0 Z " fill="#3E7CB9" transform="translate(473,209)"/>
<path d="M0 0 C0.66 0 1.32 0 2 0 C1.38188466 4.55315948 -0.46765893 8.28459767 -2.5625 12.3125 C-2.89185547 12.95767578 -3.22121094 13.60285156 -3.56054688 14.26757812 C-4.36824255 15.84785228 -5.18337613 17.42432105 -6 19 C-6.33 19 -6.66 19 -7 19 C-6.67 16.36 -6.34 13.72 -6 11 C-5.34 11 -4.68 11 -4 11 C-3.855625 10.4225 -3.71125 9.845 -3.5625 9.25 C-3.04166667 7.16666667 -2.52083333 5.08333333 -2 3 C-1.34 3 -0.68 3 0 3 C0 2.01 0 1.02 0 0 Z " fill="#F5CD52" transform="translate(133,121)"/>
<path d="M0 0 C1.98 0.99 1.98 0.99 4 2 C2.515 8.435 2.515 8.435 1 15 C0.67 15 0.34 15 0 15 C0 10.05 0 5.1 0 0 Z " fill="#F2CD50" transform="translate(0,237)"/>
<path d="M0 0 C2.31 0 4.62 0 7 0 C5.71034824 1.37562854 4.37310707 2.70766393 3 4 C2.34 4 1.68 4 1 4 C1 4.66 1 5.32 1 6 C-2.465 7.485 -2.465 7.485 -6 9 C-6 8.01 -6 7.02 -6 6 C-5.38125 5.938125 -4.7625 5.87625 -4.125 5.8125 C-1.72238859 5.171081 -1.72238859 5.171081 -0.75 2.4375 C-0.5025 1.633125 -0.255 0.82875 0 0 Z " fill="#EE5955" transform="translate(386,418)"/>
<path d="M0 0 C0.66 0 1.32 0 2 0 C0.9413873 6.75710231 -0.22125844 13.39324562 -2 20 C-2.66 19.67 -3.32 19.34 -4 19 C-3.505 14.545 -3.505 14.545 -3 10 C-2.34 10 -1.68 10 -1 10 C-0.67 6.7 -0.34 3.4 0 0 Z " fill="#E96463" transform="translate(498,330)"/>
<path d="M0 0 C0.66 0 1.32 0 2 0 C0.43913649 6.36352045 -1.25837153 12.68369407 -3 19 C-3.33 19 -3.66 19 -4 19 C-3.67 14.38 -3.34 9.76 -3 5 C-2.34 5 -1.68 5 -1 5 C-0.67 3.35 -0.34 1.7 0 0 Z " fill="#F7CB52" transform="translate(78,80)"/>
<path d="M0 0 C1.1055189 0.93590504 2.20935453 1.87379858 3.3125 2.8125 C3.92738281 3.33457031 4.54226562 3.85664063 5.17578125 4.39453125 C6.85424679 5.87172469 8.43882034 7.40039131 10 9 C9.34 10.32 8.68 11.64 8 13 C8 11.68 8 10.36 8 9 C5.69 8.34 3.38 7.68 1 7 C0.67 4.69 0.34 2.38 0 0 Z " fill="#F7CF4B" transform="translate(59,28)"/>
<path d="M0 0 C0.68707555 2.49064888 1 4.37886292 1 7 C0.34 7.66 -0.32 8.32 -1 9 C-5.06059452 13.63003842 -5.06059452 13.63003842 -8 19 C-8.33 18.34 -8.66 17.68 -9 17 C-8.14453125 15.1171875 -8.14453125 15.1171875 -6.8125 12.875 C-4.36386057 8.65485887 -2.14989797 4.37942178 0 0 Z " fill="#686868" transform="translate(485,466)"/>
<path d="M0 0 C2.64 0 5.28 0 8 0 C7.67 0.66 7.34 1.32 7 2 C7.89163577 4.11683841 7.89163577 4.11683841 9 6 C7.68 6 6.36 6 5 6 C4.67 5.34 4.34 4.68 4 4 C2.68 4.33 1.36 4.66 0 5 C0 3.35 0 1.7 0 0 Z " fill="#323232" transform="translate(366,452)"/>
<path d="M0 0 C2.5966562 2.5966562 3.10687691 4.93815375 4.1875 8.4375 C4.55230469 9.59121094 4.91710937 10.74492188 5.29296875 11.93359375 C6 15 6 15 5 18 C4.54625 17.195625 4.0925 16.39125 3.625 15.5625 C2.25274335 12.91143428 2.25274335 12.91143428 0 12 C0 11.01 0 10.02 0 9 C0.66 9 1.32 9 2 9 C1.67 8.2575 1.34 7.515 1 6.75 C0 4 0 4 0 0 Z " fill="#F8CC47" transform="translate(19,109)"/>
<path d="M0 0 C1.65 0 3.3 0 5 0 C5 1.98 5 3.96 5 6 C2.69 5.67 0.38 5.34 -2 5 C-1.34 3.35 -0.68 1.7 0 0 Z " fill="#323232" transform="translate(349,478)"/>
<path d="M0 0 C1.25180279 4.21919103 0.67252421 7.96088565 0.0625 12.25 C-0.03740234 12.99507813 -0.13730469 13.74015625 -0.24023438 14.5078125 C-0.48680156 16.33945442 -0.74250391 18.16986251 -1 20 C-1.33 20 -1.66 20 -2 20 C-2.33 17.69 -2.66 15.38 -3 13 C-2.34 13 -1.68 13 -1 13 C-1.33 10.36 -1.66 7.72 -2 5 C-2.66 5 -3.32 5 -4 5 C-3.67 3.68 -3.34 2.36 -3 1 C-2.34 1.33 -1.68 1.66 -1 2 C-0.67 1.34 -0.34 0.68 0 0 Z " fill="#F04545" transform="translate(412,361)"/>
<path d="M0 0 C1.68425161 4.05241145 0.14931311 7.31706259 -1.3125 11.1875 C-1.53873047 11.82880859 -1.76496094 12.47011719 -1.99804688 13.13085938 C-3.73334478 17.86667239 -3.73334478 17.86667239 -6 19 C-5.505 14.545 -5.505 14.545 -5 10 C-4.34 10 -3.68 10 -3 10 C-2.87625 9.0925 -2.7525 8.185 -2.625 7.25 C-2.07890323 4.41029677 -1.42736197 2.47409409 0 0 Z " fill="#F3CE54" transform="translate(124,278)"/>
<path d="M0 0 C0.33 0 0.66 0 1 0 C1.09765625 6.15234375 1.09765625 6.15234375 1 8 C0.67 8.33 0.34 8.66 0 9 C-0.36760731 11.32817964 -0.70241581 13.6618385 -1 16 C-1.66 16 -2.32 16 -3 16 C-3.33 17.32 -3.66 18.64 -4 20 C-5.28961193 17.42077613 -4.79211692 16.59708789 -4.00390625 13.8671875 C-3.77509766 13.06152344 -3.54628906 12.25585938 -3.31054688 11.42578125 C-3.06369141 10.58402344 -2.81683594 9.74226563 -2.5625 8.875 C-2.31951172 8.02550781 -2.07652344 7.17601562 -1.82617188 6.30078125 C-1.2238569 4.19858388 -0.61489475 2.09854569 0 0 Z " fill="#4D8CC0" transform="translate(164,268)"/>
<path d="M0 0 C5.06873851 2.07357484 7.26847601 4.27236232 10 9 C8.35 9 6.7 9 5 9 C4.67 8.34 4.34 7.68 4 7 C1.98330173 5.86649466 1.98330173 5.86649466 0 5 C0.66 4.67 1.32 4.34 2 4 C2 3.34 2 2.68 2 2 C1.34 2 0.68 2 0 2 C0 1.34 0 0.68 0 0 Z " fill="#4F87C0" transform="translate(200,215)"/>
<path d="M0 0 C-0.66 0 -1.32 0 -2 0 C-2 0.66 -2 1.32 -2 2 C-3.32 2 -4.64 2 -6 2 C-6 2.66 -6 3.32 -6 4 C-12.625 5 -12.625 5 -16 5 C-11.53321948 1.09156705 -5.86504904 -1.93756084 0 0 Z " fill="#386774" transform="translate(50,209)"/>
<path d="M0 0 C1.27541336 3.82624008 0.48855207 6.73122379 -0.3125 10.5625 C-0.44333984 11.24763672 -0.57417969 11.93277344 -0.70898438 12.63867188 C-1.7466133 17.7466133 -1.7466133 17.7466133 -4 20 C-3.67 15.71 -3.34 11.42 -3 7 C-2.34 7 -1.68 7 -1 7 C-1.020625 6.030625 -1.04125 5.06125 -1.0625 4.0625 C-1 1 -1 1 0 0 Z " fill="#EA6060" transform="translate(36,376)"/>
<path d="M0 0 C1.953125 0.8359375 1.953125 0.8359375 4 2 C4.75 4.625 4.75 4.625 5 7 C6.32 7 7.64 7 9 7 C9 6.34 9 5.68 9 5 C10.65 4.67 12.3 4.34 14 4 C14 4.66 14 5.32 14 6 C11.43827691 7.97618639 9.68436795 8.9499243 6.4375 9.1875 C2.59101556 7.31357168 1.5636868 3.83496371 0 0 Z " fill="#F1CE5C" transform="translate(128,184)"/>
<path d="M0 0 C0.33 0 0.66 0 1 0 C1.144375 1.11375 1.28875 2.2275 1.4375 3.375 C1.78372035 6.82142047 1.78372035 6.82142047 3 9 C2.33333333 10.33333333 1.66666667 11.66666667 1 13 C1.33 13.66 1.66 14.32 2 15 C0.68 15 -0.64 15 -2 15 C-1.855625 14.01 -1.71125 13.02 -1.5625 12 C-0.99074821 8.00590535 -0.49180166 4.00467063 0 0 Z " fill="#555555" transform="translate(451,470)"/>
<path d="M0 0 C0.33 0 0.66 0 1 0 C1 2.97 1 5.94 1 9 C0.34 9 -0.32 9 -1 9 C-0.979375 10.051875 -0.95875 11.10375 -0.9375 12.1875 C-0.98896802 15.32704904 -1.26517187 17.96883396 -2 21 C-2.66 21 -3.32 21 -4 21 C-3.15281537 15.63449734 -2.07962786 10.32222795 -1 5 C-0.66622093 3.33342254 -0.33276195 1.66678084 0 0 Z " fill="#E86262" transform="translate(440,341)"/>
<path d="M0 0 C0.33 1.32 0.66 2.64 1 4 C0.01 4.33 -0.98 4.66 -2 5 C-1.938125 5.721875 -1.87625 6.44375 -1.8125 7.1875 C-2.03746621 10.56199315 -2.99869763 12.30593911 -5 15 C-5.66 15 -6.32 15 -7 15 C-5.67231025 9.20644472 -3.33455096 4.9000081 0 0 Z " fill="#F6CE4F" transform="translate(105,117)"/>
<path d="M0 0 C6.57142857 4 6.57142857 4 8 8 C8.66 8 9.32 8 10 8 C9.67 8.66 9.34 9.32 9 10 C8.01 9.67 7.02 9.34 6 9 C6 8.34 6 7.68 6 7 C5.01 7 4.02 7 3 7 C0 2.77777778 0 2.77777778 0 0 Z " fill="#487FBC" transform="translate(399,300)"/>
<path d="M0 0 C-1.05875074 3.40312738 -2.00902154 6.01353231 -4 9 C-4.66 9 -5.32 9 -6 9 C-6 6.69 -6 4.38 -6 2 C-2.25 0 -2.25 0 0 0 Z " fill="#F8C830" transform="translate(119,153)"/>
<path d="M0 0 C2.67550292 2.67550292 2.83209389 4.94879894 3.625 8.625 C4.01558594 10.40777344 4.01558594 10.40777344 4.4140625 12.2265625 C4.70410156 13.59941406 4.70410156 13.59941406 5 15 C4.34 15 3.68 15 3 15 C3 13.68 3 12.36 3 11 C2.01 10.67 1.02 10.34 0 10 C0 6.7 0 3.4 0 0 Z " fill="#F5CC4A" transform="translate(8,74)"/>
<path d="M0 0 C3.40245228 1.2961723 5.21739472 3.31723983 7.625 6 C5.975 6 4.325 6 2.625 6 C2.295 5.34 1.965 4.68 1.625 4 C-0.69656597 3.59270772 -3.0318787 3.25561323 -5.375 3 C-3.6299515 0.70388356 -2.94954059 0 0 0 Z " fill="#5186BB" transform="translate(16.375,249)"/>
<path d="M0 0 C2 2 2 2 2.125 5.125 C2.08375 6.07375 2.0425 7.0225 2 8 C-0.31 7.67 -2.62 7.34 -5 7 C-4.67 6.01 -4.34 5.02 -4 4 C-3.01 3.67 -2.02 3.34 -1 3 C-0.67 2.01 -0.34 1.02 0 0 Z " fill="#323232" transform="translate(457,470)"/>
<path d="M0 0 C2.97 0 5.94 0 9 0 C4.49667324 3.00221784 0.42232421 4.31896025 -5 4 C-5 3.34 -5 2.68 -5 2 C-3.35 2 -1.7 2 0 2 C0 1.34 0 0.68 0 0 Z " fill="#E85756" transform="translate(370,427)"/>
<path d="M0 0 C0.88081608 3.06154621 1.19238202 5.87910677 1.25 9.0625 C1.27578125 9.91972656 1.3015625 10.77695312 1.328125 11.66015625 C0.93849591 14.43858273 0.14971323 15.27457227 -2 17 C-2.25287193 10.93107371 -1.69832609 5.83799592 0 0 Z " fill="#EC4946" transform="translate(206,387)"/>
<path d="M0 0 C0.66 0 1.32 0 2 0 C1.52013969 5.56890517 0.70084819 10.67067568 -1 16 C-2.07591401 12.61970299 -1.97215966 9.82631868 -1.625 6.3125 C-1.53476562 5.33925781 -1.44453125 4.36601562 -1.3515625 3.36328125 C-1 1 -1 1 0 0 Z " fill="#E85F5B" transform="translate(484,387)"/>
<path d="M0 0 C3.3 0 6.6 0 10 0 C10.33 1.32 10.66 2.64 11 4 C9.6875 5.75 9.6875 5.75 8 7 C7.34 7 6.68 7 6 7 C6.66 5.35 7.32 3.7 8 2 C5.36 1.67 2.72 1.34 0 1 C0 0.67 0 0.34 0 0 Z " fill="#0C58A3" transform="translate(10,307)"/>
<path d="M0 0 C0.66 0 1.32 0 2 0 C2.12375 1.093125 2.2475 2.18625 2.375 3.3125 C2.75464801 7.07381802 2.75464801 7.07381802 5 10 C4.625 13.6875 4.625 13.6875 4 17 C3.67 17 3.34 17 3 17 C2.49622232 14.73000175 1.99709981 12.45896997 1.5 10.1875 C1.08234375 8.29064453 1.08234375 8.29064453 0.65625 6.35546875 C0 3 0 3 0 0 Z " fill="#548DC4" transform="translate(28,243)"/>
<path d="M0 0 C1.11375 0.495 1.11375 0.495 2.25 1 C5.13883312 2.22782871 5.13883312 2.22782871 9 2 C9 3.98 9 5.96 9 8 C4.41173718 6.06273348 2.19471406 4.51135667 0 0 Z " fill="#EE5A5A" transform="translate(241,329)"/>
<path d="M0 0 C0.99 0.99 1.98 1.98 3 3 C1.35 3 -0.3 3 -2 3 C-2 3.66 -2 4.32 -2 5 C-2.99 5 -3.98 5 -5 5 C-5 5.66 -5 6.32 -5 7 C-6.32 6.34 -7.64 5.68 -9 5 C-6.03 3.35 -3.06 1.7 0 0 Z " fill="#528BBD" transform="translate(86,220)"/>
<path d="M0 0 C0.99 0 1.98 0 3 0 C1.31326082 4.49797113 -0.81673892 8.72886302 -3 13 C-3.33 13 -3.66 13 -4 13 C-4 11.35 -4 9.7 -4 8 C-3.34 8 -2.68 8 -2 8 C-2 6.35 -2 4.7 -2 3 C-1.34 3 -0.68 3 0 3 C0 2.01 0 1.02 0 0 Z " fill="#F3C943" transform="translate(141,105)"/>
<path d="M0 0 C0.33 0 0.66 0 1 0 C1.25 5.625 1.25 5.625 -1 9 C-1.66 9 -2.32 9 -3 9 C-3.66 6.69 -4.32 4.38 -5 2 C-3.02 2.99 -3.02 2.99 -1 4 C-0.67 2.68 -0.34 1.36 0 0 Z " fill="#EB423E" transform="translate(406,391)"/>
<path d="M0 0 C0.33 0 0.66 0 1 0 C0.31195504 6.19240462 -1.28048715 12.01955594 -3 18 C-3.33 18 -3.66 18 -4 18 C-3.66666667 15.66666667 -3.33333333 13.33333333 -3 11 C-2.855625 9.783125 -2.71125 8.56625 -2.5625 7.3125 C-2.07012448 4.41295529 -1.49542742 2.49237903 0 0 Z " fill="#306274" transform="translate(59,288)"/>
<path d="M0 0 C0.99 0 1.98 0 3 0 C3 2.97 3 5.94 3 9 C3.66 9.33 4.32 9.66 5 10 C4.34 10.66 3.68 11.32 3 12 C-0.42857143 4.71428571 -0.42857143 4.71428571 0 0 Z " fill="#4F80A4" transform="translate(0,292)"/>
<path d="M0 0 C0.66 0.33 1.32 0.66 2 1 C0.125 5.875 0.125 5.875 -1 7 C-3.65463121 7.45459858 -6.32189138 7.70243238 -9 8 C-9 7.34 -9 6.68 -9 6 C-5.535 5.505 -5.535 5.505 -2 5 C-1.34 3.35 -0.68 1.7 0 0 Z " fill="#F1CC54" transform="translate(9,218)"/>
<path d="M0 0 C0 2.97 0 5.94 0 9 C-0.99 8.34 -1.98 7.68 -3 7 C-3 6.34 -3 5.68 -3 5 C-3.66 5 -4.32 5 -5 5 C-5 4.01 -5 3.02 -5 2 C-2 0 -2 0 0 0 Z " fill="#F7D660" transform="translate(122,167)"/>
<path d="M0 0 C2.4375 0.8125 2.4375 0.8125 5 2 C5.33 2.99 5.66 3.98 6 5 C3.36 5 0.72 5 -2 5 C-1.34 3.35 -0.68 1.7 0 0 Z " fill="#2167B1" transform="translate(406,309)"/>
<path d="M0 0 C0.33 0 0.66 0 1 0 C1 4.29 1 8.58 1 13 C-0.32 13.33 -1.64 13.66 -3 14 C-2.01 9.38 -1.02 4.76 0 0 Z " fill="#578EC4" transform="translate(158,289)"/>
<path d="M0 0 C0.99 0.33 1.98 0.66 3 1 C3 1.66 3 2.32 3 3 C3.66 3 4.32 3 5 3 C5.95024979 6.69541586 5.95024979 9.30458414 5 13 C4.67 13 4.34 13 4 13 C4 10.69 4 8.38 4 6 C3.34 6 2.68 6 2 6 C2 4.68 2 3.36 2 2 C1.34 2 0.68 2 0 2 C0 1.34 0 0.68 0 0 Z " fill="#5D8FB9" transform="translate(72,209)"/>
<path d="M0 0 C0.99 0 1.98 0 3 0 C2.71572583 1.58467728 2.42225182 3.1677057 2.125 4.75 C1.88136719 6.07257813 1.88136719 6.07257813 1.6328125 7.421875 C1 10 1 10 -1 14 C-0.67 9.38 -0.34 4.76 0 0 Z " fill="#F6C94A" transform="translate(81,66)"/>
<path d="M0 0 C2.3125 0.8125 2.3125 0.8125 3.3125 2.8125 C1.0025 2.8125 -1.3075 2.8125 -3.6875 2.8125 C-3.6875 3.4725 -3.6875 4.1325 -3.6875 4.8125 C-4.6775 4.8125 -5.6675 4.8125 -6.6875 4.8125 C-6.6875 2.8125 -6.6875 2.8125 -5 1.125 C-2.6875 -0.1875 -2.6875 -0.1875 0 0 Z " fill="#F7D15C" transform="translate(30.6875,0.1875)"/>
<path d="M0 0 C0.99 0.33 1.98 0.66 3 1 C2.01 2.485 2.01 2.485 1 4 C0.67 4.99 0.34 5.98 0 7 C-2.475 6.01 -2.475 6.01 -5 5 C-4 3 -4 3 -1 2 C-0.67 1.34 -0.34 0.68 0 0 Z " fill="#333333" transform="translate(471,464)"/>
<path d="M0 0 C0.66 0 1.32 0 2 0 C1.88541307 1.43836751 1.75790884 2.87570966 1.625 4.3125 C1.55539062 5.11300781 1.48578125 5.91351563 1.4140625 6.73828125 C1 9 1 9 -1 12 C-1.33 10.02 -1.66 8.04 -2 6 C-1.34 6 -0.68 6 0 6 C0 4.02 0 2.04 0 0 Z " fill="#2F6EB0" transform="translate(447,218)"/>
<path d="M0 0 C-2.43902524 2.43902524 -4.86352319 3.59178592 -8 5 C-8.99 5 -9.98 5 -11 5 C-10 2 -10 2 -7.75 0.8125 C-5.00208853 0.00061706 -2.84552111 -0.16260121 0 0 Z " fill="#DDBB32" transform="translate(43,209)"/>
<path d="M0 0 C0.66 0 1.32 0 2 0 C1 2 0 4 -1 6 C-1.66 6 -2.32 6 -3 6 C-3.33 6.66 -3.66 7.32 -4 8 C-4 5.69 -4 3.38 -4 1 C-2.68 1.33 -1.36 1.66 0 2 C0 1.34 0 0.68 0 0 Z " fill="#EC5455" transform="translate(397,410)"/>
<path d="M0 0 C0.33 0 0.66 0 1 0 C0.38487182 5.00890086 -0.2717552 10.00632136 -1 15 C-1.33 15 -1.66 15 -2 15 C-2 11.04 -2 7.08 -2 3 C-1.34 3 -0.68 3 0 3 C0 2.01 0 1.02 0 0 Z " fill="#EB6564" transform="translate(31,396)"/>
<path d="M0 0 C1.32 0.66 2.64 1.32 4 2 C4 3.65 4 5.3 4 7 C3.01 7.495 3.01 7.495 2 8 C0.4375 5.6875 0.4375 5.6875 -1 3 C-0.67 2.01 -0.34 1.02 0 0 Z " fill="#E45A5F" transform="translate(236,319)"/>
<path d="M0 0 C4.95 0.99 4.95 0.99 10 2 C10 3.65 10 5.3 10 7 C6.02830798 4.82681003 3.22914643 3.22914643 0 0 Z " fill="#F7CD51" transform="translate(92,150)"/>
<path d="M0 0 C2 3 2 3 2 6 C-1.3 6 -4.6 6 -8 6 C-4.77208445 3.8480563 -3.71599191 3.79913557 0 4 C0 2.68 0 1.36 0 0 Z " fill="#F2CD54" transform="translate(25,127)"/>
<path d="M0 0 C0.33 0.66 0.66 1.32 1 2 C1.66 2 2.32 2 3 2 C3 2.66 3 3.32 3 4 C4.32 4.66 5.64 5.32 7 6 C6.34 7.32 5.68 8.64 5 10 C5 8.68 5 7.36 5 6 C3.68 5.67 2.36 5.34 1 5 C0.67 3.35 0.34 1.7 0 0 Z " fill="#F6D157" transform="translate(81,50)"/>
<path d="M0 0 C0.33 0.66 0.66 1.32 1 2 C2.88764903 2.68472665 2.88764903 2.68472665 5.0625 3.125 C5.79597656 3.29257813 6.52945313 3.46015625 7.28515625 3.6328125 C7.85105469 3.75398437 8.41695312 3.87515625 9 4 C9 4.33 9 4.66 9 5 C1.25 5.125 1.25 5.125 -1 4 C-0.67 2.68 -0.34 1.36 0 0 Z " fill="#0A57A9" transform="translate(29,220)"/>
<path d="M0 0 C0.99 0.33 1.98 0.66 3 1 C3 1.66 3 2.32 3 3 C3.66 3 4.32 3 5 3 C5 4.65 5 6.3 5 8 C4.34 8 3.68 8 3 8 C0 2.25 0 2.25 0 0 Z " fill="#F7C840" transform="translate(18,213)"/>
<path d="M0 0 C1.32 0 2.64 0 4 0 C4 0.66 4 1.32 4 2 C4.969375 2.12375 5.93875 2.2475 6.9375 2.375 C8.4534375 2.684375 8.4534375 2.684375 10 3 C10.33 3.66 10.66 4.32 11 5 C6.12637153 4.54663921 3.60957611 3.2910841 0 0 Z " fill="#E8625D" transform="translate(250,337)"/>
<path d="M0 0 C0.66 0.99 1.32 1.98 2 3 C1.125 6.6875 1.125 6.6875 0 10 C-0.66 10 -1.32 10 -2 10 C-2 8.35 -2 6.7 -2 5 C-1.34 5 -0.68 5 0 5 C0 3.35 0 1.7 0 0 Z " fill="#EA4F4F" transform="translate(203,321)"/>
<path d="M0 0 C3.77545388 1.09068668 6.47043472 1.9083091 9 5 C7.02 5 5.04 5 3 5 C3 4.34 3 3.68 3 3 C2.01 2.67 1.02 2.34 0 2 C0 1.34 0 0.68 0 0 Z " fill="#5788BB" transform="translate(390,295)"/>
<path d="M0 0 C0.33 0.99 0.66 1.98 1 3 C-3.49656104 5.24828052 -7.07872966 5.16682272 -12 5 C-12 4.67 -12 4.34 -12 4 C-8.7 3.67 -5.4 3.34 -2 3 C-2 2.34 -2 1.68 -2 1 C-1.34 0.67 -0.68 0.34 0 0 Z " fill="#F2BC25" transform="translate(81,200)"/>
<path d="M0 0 C0.66 0 1.32 0 2 0 C2 1.65 2 3.3 2 5 C0.02 5.99 0.02 5.99 -2 7 C-1.125 2.25 -1.125 2.25 0 0 Z " fill="#F3C82B" transform="translate(97,132)"/>
<path d="M0 0 C0.66 0.33 1.32 0.66 2 1 C-1.44615385 6.78461538 -1.44615385 6.78461538 -4.25 7.875 C-4.8275 7.91625 -5.405 7.9575 -6 8 C-6 7.34 -6 6.68 -6 6 C-5.34 6 -4.68 6 -4 6 C-4 5.34 -4 4.68 -4 4 C-2.70766393 2.62689293 -1.37562854 1.28965176 0 0 Z " fill="#F9D970" transform="translate(22,5)"/>
<path d="M0 0 C1.43655854 -0.08131463 2.8744483 -0.13933559 4.3125 -0.1875 C5.51326172 -0.23970703 5.51326172 -0.23970703 6.73828125 -0.29296875 C9.47851584 0.06198392 10.29171079 0.89366282 12 3 C11.34 3.66 10.68 4.32 10 5 C9.649375 4.525625 9.29875 4.05125 8.9375 3.5625 C6.15836457 1.32126175 3.4855283 1.32882342 0 1 C0 0.67 0 0.34 0 0 Z " fill="#E3484A" transform="translate(352,343)"/>
<path d="M0 0 C0 3.57575896 -1.08840607 5.05295935 -3 8 C-4.32 7.67 -5.64 7.34 -7 7 C-4.66666667 4.66666667 -2.33333333 2.33333333 0 0 Z " fill="#5F92C7" transform="translate(17,309)"/>
<path d="M0 0 C3.50454332 2.33636221 4.27363172 4.23337829 6 8 C6.33 8.66 6.66 9.32 7 10 C4.625 9.5 4.625 9.5 2 8 C0.91758097 5.33474712 0.50727893 2.8592085 0 0 Z " fill="#F5D875" transform="translate(111,196)"/>
<path d="M0 0 C0.66 0 1.32 0 2 0 C2.25 2.25 2.25 2.25 2 5 C0 7.3125 0 7.3125 -2 9 C-1.34 6.03 -0.68 3.06 0 0 Z " fill="#5B8FC1" transform="translate(242,240)"/>
<path d="M0 0 C3.36720387 1.39332574 4.9859524 2.9789286 7 6 C4.625 5.8125 4.625 5.8125 2 5 C0.6875 2.4375 0.6875 2.4375 0 0 Z " fill="#F5D056" transform="translate(91,175)"/>
<path d="M0 0 C1.32 0 2.64 0 4 0 C4 0.66 4 1.32 4 2 C4.66 2 5.32 2 6 2 C6.33 3.65 6.66 5.3 7 7 C5.83040013 6.02433888 4.66438823 5.044375 3.5 4.0625 C2.8503125 3.51722656 2.200625 2.97195312 1.53125 2.41015625 C1.0259375 1.94480469 0.520625 1.47945312 0 1 C0 0.67 0 0.34 0 0 Z " fill="#F5CE47" transform="translate(38,48)"/>
<path d="M0 0 C2.31 1.98 4.62 3.96 7 6 C5 7 5 7 2.9375 6.375 C1 5 1 5 0.25 2.375 C0.1675 1.59125 0.085 0.8075 0 0 Z " fill="#FBD75E" transform="translate(74,43)"/>
<path d="M0 0 C0.33 0 0.66 0 1 0 C1 1.65 1 3.3 1 5 C-1.97 5 -4.94 5 -8 5 C-8 4.67 -8 4.34 -8 4 C-6.865625 3.71125 -5.73125 3.4225 -4.5625 3.125 C-3.386875 2.75375 -2.21125 2.3825 -1 2 C-0.67 1.34 -0.34 0.68 0 0 Z " fill="#E15653" transform="translate(24,426)"/>
<path d="M0 0 C0.33 0 0.66 0 1 0 C1 2.97 1 5.94 1 9 C0.01 9.495 0.01 9.495 -1 10 C-2.23076923 4.58461538 -2.23076923 4.58461538 -1.0625 1.625 C-0.5365625 0.820625 -0.5365625 0.820625 0 0 Z " fill="#E74032" transform="translate(28,405)"/>
<path d="M0 0 C0.33 0 0.66 0 1 0 C1.36923077 7.50769231 1.36923077 7.50769231 -0.5 10 C-0.995 10.33 -1.49 10.66 -2 11 C-1 3.57142857 -1 3.57142857 0 0 Z " fill="#477AB7" transform="translate(164,268)"/>
<path d="M0 0 C2 1.75 2 1.75 4 4 C4 5.32 4 6.64 4 8 C3.34 8 2.68 8 2 8 C0.23537317 4.91190305 0 3.76687864 0 0 Z " fill="#F7C536" transform="translate(107,191)"/>
<path d="M0 0 C0.99 0.33 1.98 0.66 3 1 C1.71937515 2.7074998 0.38232443 4.37373596 -1 6 C-1.66 6 -2.32 6 -3 6 C-3 4.68 -3 3.36 -3 2 C-2.01 2 -1.02 2 0 2 C0 1.34 0 0.68 0 0 Z " fill="#F5C944" transform="translate(23,43)"/>
</svg>
